<?xml version="1.0" encoding="UTF-8" standalone="no"?>
<svg
   height="48"
   width="48"
   version="1.1"
   id="svg6"
   sodipodi:docname="mail-send-receive.svg"
   inkscape:version="1.4.3 (1:1.4.3+202512261035+0d15f75042)"
   xmlns:inkscape="http://www.inkscape.org/namespaces/inkscape"
   xmlns:sodipodi="http://sodipodi.sourceforge.net/DTD/sodipodi-0.dtd"
   xmlns:xlink="http://www.w3.org/1999/xlink"
   xmlns="http://www.w3.org/2000/svg"
   xmlns:svg="http://www.w3.org/2000/svg"
   xmlns:rdf="http://www.w3.org/1999/02/22-rdf-syntax-ns#"
   xmlns:cc="http://creativecommons.org/ns#"
   xmlns:dc="http://purl.org/dc/elements/1.1/">
  <sodipodi:namedview
     id="namedview10667"
     pagecolor="#ffffff"
     bordercolor="#000000"
     borderopacity="0.25"
     inkscape:showpageshadow="2"
     inkscape:pageopacity="0.0"
     inkscape:pagecheckerboard="0"
     inkscape:deskcolor="#d1d1d1"
     showgrid="false"
     inkscape:zoom="7.4687505"
     inkscape:cx="-0.26778241"
     inkscape:cy="25.974894"
     inkscape:window-width="1366"
     inkscape:window-height="705"
     inkscape:window-x="0"
     inkscape:window-y="0"
     inkscape:window-maximized="1"
     inkscape:current-layer="svg6" />
  <metadata
     id="metadata12">
    <rdf:RDF>
      <cc:Work
         rdf:about="">
        <dc:format>image/svg+xml</dc:format>
        <dc:type
           rdf:resource="http://purl.org/dc/dcmitype/StillImage" />
      </cc:Work>
    </rdf:RDF>
  </metadata>
  <defs
     id="defs10">
    <linearGradient
       id="linearGradient1356">
      <stop
         offset="0"
         style="stop-color:#ffffff;stop-opacity:1"
         id="stop1348" />
      <stop
         offset="0.00000001"
         style="stop-color:#ffffff;stop-opacity:0.23529412"
         id="stop1350" />
      <stop
         offset="1"
         style="stop-color:#ffffff;stop-opacity:0.15686275"
         id="stop1352" />
      <stop
         offset="1"
         style="stop-color:#ffffff;stop-opacity:0.39215687"
         id="stop1354" />
    </linearGradient>
    <linearGradient
       id="linearGradient870">
      <stop
         style="stop-color:#cd9ef7;stop-opacity:1"
         offset="0"
         id="stop866" />
      <stop
         style="stop-color:#a56de2;stop-opacity:1"
         offset="1"
         id="stop868" />
    </linearGradient>
    <linearGradient
       inkscape:collect="always"
       xlink:href="#linearGradient1356"
       id="linearGradient4081"
       gradientUnits="userSpaceOnUse"
       gradientTransform="matrix(0.81345063,0,0,0.90731166,-4.4262065,-14.556943)"
       x1="25.631071"
       y1="57.037033"
       x2="12.286115"
       y2="57.037033" />
    <linearGradient
       inkscape:collect="always"
       xlink:href="#linearGradient1597-3"
       id="linearGradient4079"
       gradientUnits="userSpaceOnUse"
       gradientTransform="matrix(1.3949562,0,0,1.0351208,-20.078404,-21.525146)"
       x1="36.61731"
       y1="53.037033"
       x2="27.66007"
       y2="53.037033" />
    <linearGradient
       id="linearGradient1597-3">
      <stop
         id="stop1589-5"
         style="stop-color:#ffffff;stop-opacity:1"
         offset="0" />
      <stop
         id="stop1591-6"
         style="stop-color:#ffffff;stop-opacity:0.23529412"
         offset="0.00000012" />
      <stop
         id="stop1593-2"
         style="stop-color:#ffffff;stop-opacity:0.15686275"
         offset="1" />
      <stop
         id="stop1595-9"
         style="stop-color:#ffffff;stop-opacity:0.39215687"
         offset="1" />
    </linearGradient>
    <linearGradient
       inkscape:collect="always"
       xlink:href="#linearGradient1046"
       id="linearGradient1556-1"
       gradientUnits="userSpaceOnUse"
       gradientTransform="matrix(0,2.0827725,2.0827725,0,-54.902071,71.453278)"
       x1="-17.673822"
       y1="42.245449"
       x2="-17.673822"
       y2="29.409298" />
    <linearGradient
       id="linearGradient1046">
      <stop
         id="stop1042"
         offset="0"
         style="stop-color:#9bdb4d;stop-opacity:1" />
      <stop
         id="stop1044"
         offset="1"
         style="stop-color:#68b723;stop-opacity:1" />
    </linearGradient>
    <linearGradient
       id="linearGradient8662-8">
      <stop
         id="stop8664-1"
         style="stop-color:#000000;stop-opacity:1"
         offset="0" />
      <stop
         id="stop8666-5"
         style="stop-color:#000000;stop-opacity:0"
         offset="1" />
    </linearGradient>
    <linearGradient
       inkscape:collect="always"
       xlink:href="#linearGradient870"
       id="linearGradient1556"
       gradientUnits="userSpaceOnUse"
       gradientTransform="matrix(0,2.0827725,-2.0827725,0,104.41108,50.625556)"
       x1="-17.392385"
       y1="25.29842"
       x2="-17.392385"
       y2="47.231144" />
    <linearGradient
       inkscape:collect="always"
       xlink:href="#linearGradient47817"
       id="linearGradient47751"
       gradientUnits="userSpaceOnUse"
       gradientTransform="matrix(0,1.1188694,1.201379,0,-41.959164,-63.566154)"
       x1="70.441086"
       y1="67.749962"
       x2="70.441086"
       y2="50.323315" />
    <linearGradient
       id="linearGradient47817">
      <stop
         id="stop47809"
         style="stop-color:#ffffff;stop-opacity:1"
         offset="0" />
      <stop
         id="stop47811"
         style="stop-color:#ffffff;stop-opacity:0.23529412"
         offset="0.40414637" />
      <stop
         id="stop47813"
         style="stop-color:#ffffff;stop-opacity:0.15686275"
         offset="1" />
      <stop
         id="stop47815"
         style="stop-color:#ffffff;stop-opacity:0.38999999;"
         offset="1" />
    </linearGradient>
    <radialGradient
       gradientTransform="matrix(-0.52995454,0,0,-0.35307735,22.512547,21.835677)"
       gradientUnits="userSpaceOnUse"
       xlink:href="#linearGradient8662-8"
       id="radialGradient3862-3"
       fy="36.421127"
       fx="24.837126"
       r="15.644737"
       cy="36.421127"
       cx="24.837126" />
    <radialGradient
       inkscape:collect="always"
       xlink:href="#linearGradient8662-8"
       id="radialGradient12365"
       gradientUnits="userSpaceOnUse"
       gradientTransform="matrix(-0.52995454,0,0,-0.35307735,22.512547,21.835677)"
       cx="24.837126"
       cy="36.421127"
       fx="24.837126"
       fy="36.421127"
       r="15.644737" />
  </defs>
  <g
     id="g12363"
     transform="matrix(0,-1.6328575,-1.8852698,0,39.594276,28.867999)"
     style="stroke-width:1.18709">
    <path
       style="display:inline;overflow:visible;visibility:visible;opacity:0.141176;fill:url(#radialGradient12365);fill-opacity:1;fill-rule:evenodd;stroke:none;stroke-width:1.18709;marker:none"
       id="path12361"
       d="m 1.059,8.976195 a 8.2909995,5.5238047 0 1 1 16.581999,0 8.2909995,5.5238047 0 0 1 -16.581999,0 z" />
  </g>
  <g
     id="layer1"
     transform="matrix(0,-1.6328575,-1.8852698,0,29.180412,49.695722)"
     style="stroke-width:1.18709">
    <path
       style="display:inline;overflow:visible;visibility:visible;opacity:0.141176;fill:url(#radialGradient3862-3);fill-opacity:1;fill-rule:evenodd;stroke:none;stroke-width:1.18709;marker:none"
       id="path3501-0"
       d="m 1.059,8.976195 a 8.2909995,5.5238047 0 1 1 16.581999,0 8.2909995,5.5238047 0 0 1 -16.581999,0 z" />
  </g>
  <path
     id="path873-5-5-4"
     style="font-variation-settings:normal;fill:url(#linearGradient1556-1);fill-opacity:1;stroke:#206b00;stroke-width:2.08277;stroke-linecap:round;stroke-linejoin:round;stroke-miterlimit:4;stroke-dasharray:none;stroke-dashoffset:0;stroke-opacity:0.5;stop-color:#000000"
     d="m 18.775256,45.883756 c -0.26906,0 -0.476431,-0.210944 -0.593914,-0.262961 -0.01,-0.01125 -0.02168,-0.02217 -0.03234,-0.03286 L 5.1857424,34.958681 c -0.1368383,-0.13915 -0.2175727,-0.322917 -0.2175727,-0.530176 0,-0.205778 0.080727,-0.383061 0.2175727,-0.531107 L 18.148998,23.263029 c 0.01063,-0.01063 0.02233,-0.02159 0.03234,-0.03284 0.146295,-0.158416 0.349465,-0.256926 0.593917,-0.256926 0.454195,0 0.772326,0.329606 0.772326,0.773739 v 6.796147 c -2.86e-4,0.414521 0.379418,0.761796 0.818306,0.761796 h 13.008399 c 0.430309,0 0.752682,0.327556 0.752682,0.76478 v 4.719074 c 0,0.437226 -0.322373,0.76478 -0.752682,0.76478 H 20.292379 c -0.402892,0.03826 -0.745068,0.36873 -0.744799,0.7588 v 6.8066 c 0,0.397692 -0.465052,0.764782 -0.772324,0.764782 z"
     sodipodi:nodetypes="scccscccsscsssssccss" />
  <path
     d="m 17.464795,31.304348 v -4.779964 l -9.632828,7.904119 9.632828,7.904123 v -4.779702"
     style="font-variation-settings:normal;opacity:0.6;vector-effect:none;fill:none;fill-opacity:1;stroke:url(#linearGradient4081);stroke-width:2.08277;stroke-linecap:butt;stroke-linejoin:miter;stroke-miterlimit:4;stroke-dasharray:none;stroke-dashoffset:0;stroke-opacity:1;marker:none;marker-start:none;marker-mid:none;marker-end:none;stop-color:#000000"
     id="path4075"
     sodipodi:nodetypes="ccccc" />
  <path
     d="m 17.464795,37.552405 c 0,-0.856008 1.532365,-2.082043 2.603461,-2.082256 0,0 8.522965,-0.05003 11.975945,-5.16e-4 v -2.081477 l -11.975945,-0.002 c -0.968578,-1.19e-4 -2.603461,-1.046607 -2.603461,-2.081728"
     style="font-variation-settings:normal;opacity:0.6;vector-effect:none;fill:none;fill-opacity:1;stroke:url(#linearGradient4079);stroke-width:2.08277;stroke-linecap:butt;stroke-linejoin:miter;stroke-miterlimit:4;stroke-dasharray:none;stroke-dashoffset:0;stroke-opacity:1;marker:none;marker-start:none;marker-mid:none;marker-end:none;stop-color:#000000"
     id="path4077"
     sodipodi:nodetypes="cccccc" />
  <path
     id="path873-5-5-4-0"
     style="font-variation-settings:normal;fill:url(#linearGradient1556);fill-opacity:1;stroke:#7239b3;stroke-width:2.08277;stroke-linecap:round;stroke-linejoin:round;stroke-miterlimit:4;stroke-dasharray:none;stroke-dashoffset:0;stroke-opacity:0.5;stop-color:#000000"
     d="m 30.733754,25.056034 c 0.269061,0 0.476432,-0.210944 0.593915,-0.262961 0.01,-0.01125 0.02167,-0.02217 0.03234,-0.03286 l 12.96325,-10.629252 c 0.136839,-0.13915 0.217573,-0.322917 0.217573,-0.530176 0,-0.205778 -0.08073,-0.383061 -0.217573,-0.531106 L 31.360013,2.4353049 C 31.349385,2.424682 31.337686,2.4137063 31.32767,2.4024592 31.181372,2.244044 30.978202,2.145533 30.73375,2.145533 c -0.454195,0 -0.772326,0.329607 -0.772326,0.7737404 v 6.7961472 c 2.86e-4,0.4145214 -0.379419,0.7617974 -0.818306,0.7617974 H 16.134714 c -0.430309,0 -0.752682,0.327555 -0.752682,0.764779 v 4.719074 c 0,0.437227 0.322373,0.76478 0.752682,0.76478 h 13.081917 c 0.402891,0.03826 0.745069,0.36873 0.744799,0.7588 v 6.806601 c 0,0.397694 0.465053,0.764782 0.772324,0.764782 z"
     sodipodi:nodetypes="scccscccsscsssssccss" />
  <path
     id="path4075-9"
     style="font-variation-settings:normal;opacity:0.6;fill:none;fill-opacity:1;stroke:url(#linearGradient47751);stroke-width:2.08277;stroke-linecap:butt;stroke-linejoin:miter;stroke-miterlimit:7;stroke-dasharray:none;stroke-dashoffset:0;stroke-opacity:1;marker:none;marker-start:none;marker-mid:none;marker-end:none;stop-color:#000000"
     d="M 41.677023,13.600782 32.044201,5.6968239 v 4.7797991 c 0,1.035122 -1.634887,2.082644 -2.603466,2.082774 H 17.464787 v 2.082771 c 3.452977,-0.04951 11.975948,0 11.975948,0 1.071095,2.13e-4 2.603466,1.226764 2.603466,2.082773 v 4.779801 z"
     sodipodi:nodetypes="ccsccccscc" />
</svg>
