<?xml version="1.0" encoding="UTF-8" standalone="no"?>
<svg
   viewBox="0 0 48 48"
   version="1.0"
   width="48"
   height="48"
   id="svg11300"
   sodipodi:docname="drive-removable-media-usb.svg"
   inkscape:version="1.2.2 (b0a8486541, 2022-12-01)"
   xmlns:inkscape="http://www.inkscape.org/namespaces/inkscape"
   xmlns:sodipodi="http://sodipodi.sourceforge.net/DTD/sodipodi-0.dtd"
   xmlns:xlink="http://www.w3.org/1999/xlink"
   xmlns="http://www.w3.org/2000/svg"
   xmlns:svg="http://www.w3.org/2000/svg"
   xmlns:rdf="http://www.w3.org/1999/02/22-rdf-syntax-ns#"
   xmlns:cc="http://creativecommons.org/ns#"
   xmlns:dc="http://purl.org/dc/elements/1.1/">
  <sodipodi:namedview
     id="namedview38"
     pagecolor="#ffffff"
     bordercolor="#000000"
     borderopacity="0.25"
     inkscape:showpageshadow="2"
     inkscape:pageopacity="0.0"
     inkscape:pagecheckerboard="0"
     inkscape:deskcolor="#d1d1d1"
     showgrid="false"
     inkscape:zoom="9.9375"
     inkscape:cx="24.100629"
     inkscape:cy="24.100629"
     inkscape:window-width="1366"
     inkscape:window-height="705"
     inkscape:window-x="0"
     inkscape:window-y="0"
     inkscape:window-maximized="1"
     inkscape:current-layer="svg11300" />
  <metadata
     id="metadata49">
    <rdf:RDF>
      <cc:Work
         rdf:about="">
        <dc:format>image/svg+xml</dc:format>
        <dc:type
           rdf:resource="http://purl.org/dc/dcmitype/StillImage" />
        <dc:title />
      </cc:Work>
    </rdf:RDF>
  </metadata>
  <defs
     id="defs3">
    <linearGradient
       id="linearGradient4614">
      <stop
         offset="0"
         style="stop-color:#ffffff;stop-opacity:1"
         id="stop4606" />
      <stop
         offset="0"
         style="stop-color:#ffffff;stop-opacity:0.23529412"
         id="stop4608" />
      <stop
         offset="0.9812181"
         style="stop-color:#ffffff;stop-opacity:0.15686275"
         id="stop4610" />
      <stop
         offset="1"
         style="stop-color:#ffffff;stop-opacity:0.39215687"
         id="stop4612" />
    </linearGradient>
    <linearGradient
       id="linearGradient3742">
      <stop
         id="stop3734"
         style="stop-color:#ffffff;stop-opacity:1"
         offset="0" />
      <stop
         id="stop3736"
         style="stop-color:#ffffff;stop-opacity:0.23529412"
         offset="0.01900466" />
      <stop
         id="stop3738"
         style="stop-color:#ffffff;stop-opacity:0.15686275"
         offset="0.9812181" />
      <stop
         id="stop3740"
         style="stop-color:#ffffff;stop-opacity:0.39215687"
         offset="1" />
    </linearGradient>
    <radialGradient
       r="22.627001"
       gradientTransform="matrix(0.48613231,0,0,0.11048705,12.656462,39.898188)"
       cx="23.334999"
       cy="41.636002"
       gradientUnits="userSpaceOnUse"
       id="radialGradient7374">
      <stop
         offset="0"
         id="stop23421" />
      <stop
         offset="1"
         style="stop-opacity:0"
         id="stop23423" />
    </radialGradient>
    <linearGradient
       id="linearGradient3600-8">
      <stop
         id="stop3602-2"
         style="stop-color:#f4f4f4;stop-opacity:1"
         offset="0" />
      <stop
         id="stop3604-5"
         style="stop-color:#dbdbdb;stop-opacity:1"
         offset="1" />
    </linearGradient>
    <linearGradient
       x1="11.098394"
       y1="5.9702148"
       x2="11.098394"
       y2="45.68882"
       id="linearGradient5466-8-3"
       xlink:href="#linearGradient3600-8"
       gradientUnits="userSpaceOnUse"
       gradientTransform="matrix(0.95586485,0,0,0.83020854,17.661268,-2.959857)" />
    <linearGradient
       y2="31.67935"
       x2="118.57409"
       y1="3.7037382"
       x1="118.57409"
       gradientTransform="matrix(0.62162171,0,0,1.108108,-41.600004,-1.104142)"
       gradientUnits="userSpaceOnUse"
       id="linearGradient3730"
       xlink:href="#linearGradient3742" />
    <linearGradient
       y2="-26.979191"
       x2="116.7913"
       y1="-37.80846"
       x1="116.7913"
       gradientTransform="matrix(0.62162171,0,0,1.108108,-41.600004,-1.104142)"
       gradientUnits="userSpaceOnUse"
       id="linearGradient4604"
       xlink:href="#linearGradient4614" />
    <linearGradient
       id="linearGradient7056">
      <stop
         id="stop7064"
         style="stop-color:#e6e6e6;stop-opacity:1"
         offset="0" />
      <stop
         id="stop7060"
         style="stop-color:#c8c8c8;stop-opacity:1"
         offset="1" />
    </linearGradient>
    <linearGradient
       gradientUnits="userSpaceOnUse"
       y2="-44.395805"
       x2="25"
       y1="-35"
       x1="25"
       id="linearGradient4763"
       xlink:href="#linearGradient7056" />
    <radialGradient
       xlink:href="#linearGradient3820-7-2"
       id="radialGradient3300"
       gradientUnits="userSpaceOnUse"
       gradientTransform="matrix(0.3823536,7.5555777e-8,-1.8372241e-8,0.1115198,-5.9254271,36.335849)"
       cx="99.189415"
       cy="185.29727"
       fx="99.189415"
       fy="185.29727"
       r="62.769119" />
    <linearGradient
       id="linearGradient3820-7-2">
      <stop
         id="stop3822-2-6"
         style="stop-color:#000000;stop-opacity:1"
         offset="0" />
      <stop
         id="stop3824-1-2"
         style="stop-color:#000000;stop-opacity:0"
         offset="1" />
    </linearGradient>
    <radialGradient
       inkscape:collect="always"
       xlink:href="#linearGradient3820-7-2"
       id="radialGradient4192"
       gradientUnits="userSpaceOnUse"
       gradientTransform="matrix(0.2549024,5.3967361e-8,-1.2248161e-8,0.07965545,6.7163816,44.240666)"
       cx="99.189415"
       cy="185.29727"
       fx="99.189415"
       fy="185.29727"
       r="62.769119" />
  </defs>
  <path
     d="m 35,44.4986 a 11,2.5 0 1 1 -22,0 11,2.5 0 1 1 22,0 z"
     style="opacity:0.3;fill:url(#radialGradient7374);fill-rule:evenodd;stroke-width:0.99999994"
     id="path23417" />
  <rect
     x="16.5"
     y="-44.5"
     width="15"
     height="15"
     ry="1"
     rx="1"
     transform="scale(1,-1)"
     style="fill:url(#linearGradient4763);fill-opacity:1;stroke:none"
     id="rect3448" />
  <rect
     x="16.5"
     y="-44.5"
     width="15"
     height="15"
     ry="1"
     rx="1"
     transform="scale(1,-1)"
     style="opacity:0.4;fill:none;stroke:#000000;stroke-opacity:1"
     id="rect3448-9" />
  <path
     id="rect3450"
     d="m 19.5,38.5 v 3 h 3 v -3 z m 6,0 v 3 h 3 v -3 z"
     style="opacity:0.35;fill:#000000;fill-opacity:0.33598849;stroke:#000000;stroke-width:1;stroke-linecap:butt;stroke-linejoin:miter;stroke-miterlimit:4;stroke-dasharray:none;stroke-dashoffset:0;stroke-opacity:1" />
  <rect
     x="17.5"
     y="-43.5"
     width="13"
     height="13"
     transform="scale(1,-1)"
     style="opacity:0.6;fill:none;stroke:url(#linearGradient4604);font-variant-east_asian:normal;fill-opacity:1;stroke-width:0.99999994;stroke-linecap:round;stroke-linejoin:round;stroke-miterlimit:4;stroke-dasharray:none;stroke-dashoffset:0;stroke-opacity:1;marker:none"
     id="rect3458" />
  <rect
     x="14"
     y="2"
     width="20"
     height="33"
     ry="1.5"
     rx="1.5"
     style="opacity:1;fill:url(#linearGradient5466-8-3);fill-opacity:1;stroke:none;stroke-width:0.99992192;stroke-linecap:butt;stroke-linejoin:round;stroke-miterlimit:4;stroke-dasharray:none;stroke-dashoffset:0;stroke-opacity:1;marker:none"
     id="rect5391" />
  <rect
     x="13.5"
     y="1.5"
     width="21"
     height="34"
     ry="2"
     rx="2"
     style="opacity:0.3;fill:none;fill-opacity:1;stroke:#000000;stroke-width:0.99992192;stroke-linecap:butt;stroke-linejoin:round;stroke-miterlimit:4;stroke-dasharray:none;stroke-dashoffset:0;stroke-opacity:1;marker:none"
     id="rect5391-2" />
  <rect
     x="14.499961"
     y="2.4999609"
     width="19.000078"
     height="32.000076"
     ry="1"
     rx="1"
     style="opacity:1;fill:none;fill-opacity:1;stroke:url(#linearGradient3730);stroke-width:0.99999994;stroke-linecap:round;stroke-linejoin:round;stroke-miterlimit:4;stroke-dasharray:none;stroke-dashoffset:0;stroke-opacity:1;marker:none;font-variant-east_asian:normal"
     id="rect5391-2-0" />
  <path
     d="m 22.678,29.36641 c 0,-1.2774 0.42456,-1.6088 0.94461,-2.0548 0.4175,-0.20154 0.48421,-0.33913 0.47872,-0.9873 -0.006,-0.71628 -0.07462,-0.63446 -1.4022,-1.7869 -2.027,-1.7595 -2.2996,-2.1838 -2.5376,-3.9494 -0.17556,-1.3022 -0.05242,-1.0157 -0.55638,-1.5166 -0.92759,-0.92193 -0.76867,-2.274 0.33557,-2.8551 0.99478,-0.52348 2.1732,0.03328 2.5366,1.1985 0.17911,0.57427 -0.25029,1.566 -0.82688,1.9097 -0.52764,0.31455 -0.74654,-0.20987 -0.62588,0.94961 0.06678,0.64174 0.22952,1.3798 0.36164,1.6401 0.22691,0.44704 2.4489,2.5515 2.6906,2.5515 v -12.432 h -1.2317 c 0.57,-0.988 1.125,-1.9924 1.677,-2.987 l 1.7577,2.9874 h -1.1972 v 8.42 c 0.16651,0 1.799,-1.6568 2.3483,-2.4027 0.23734,-0.32228 0.38137,-0.77989 0.38137,-1.2117 0,-0.65124 0.21476,-0.78818 -0.28196,-0.78818 h -0.5292 v -3.0516 h 2.9988 v 3.0516 h -0.4851 c -0.43284,0.05068 -0.74221,0.2713 -0.82392,0.99341 -0.12186,1.0769 -0.58309,1.7837 -2.2805,3.4947 l -1.3278,1.4319 v 5.1064 l 0.39238,0.23418 c 0.26681,0.1288 0.63426,0.54499 0.81656,0.92487 0.649,1.355 -0.254,2.811 -1.743,2.811 -1.079,-0.04 -1.871,-0.594 -1.871,-1.68 z"
     style="opacity:0.3;fill:#ffffff"
     id="path3690-6" />
  <g
     id="g4198"
     transform="matrix(0.42950544,0,0,0.42950544,10.578501,5.6932404)">
    <path
       inkscape:connector-curvature="0"
       d="m 55.999998,57.0017 a 24,6.9985714 0 1 1 -47.9999991,0 24,6.9985714 0 1 1 47.9999991,0 z"
       id="path3818-0"
       style="opacity:0.2;fill:url(#radialGradient3300);fill-opacity:1;stroke:none" />
    <path
       style="opacity:0.4;fill:url(#radialGradient4192);fill-opacity:1;stroke:none"
       id="path4190"
       d="m 47.999998,59.0017 a 16,4.9988822 0 1 1 -31.999999,0 16,4.9988822 0 1 1 31.999999,0 z"
       inkscape:connector-curvature="0" />
  </g>
  <path
     style="color:#bebebe;display:inline;overflow:visible;visibility:visible;opacity:0.2;fill:#9bdb4d;fill-opacity:1;fill-rule:nonzero;stroke:none;stroke-width:0.758622;marker:none;enable-background:accumulate"
     id="path10693"
     d="m 24.365606,8.2197481 c 0,0 -1.011482,0 -1.011482,0.9665877 0,0.9665422 -1.011528,0.9665422 -1.011528,0.9665422 0,0 -1.011492,6.87e-4 -1.011492,-0.9665422 V 22.718082 h 6.069005 V 9.1863358 c 0,0.9665422 -1.011484,0.9665422 -1.011484,0.9665422 0,0 -1.011536,0 -1.011536,-0.9665422 0,-0.9665877 -1.011483,-0.9665877 -1.011483,-0.9665877 z" />
  <path
     style="color:#bebebe;display:inline;overflow:visible;visibility:visible;opacity:0.5;fill:#9bdb4d;fill-opacity:1;fill-rule:nonzero;stroke:none;stroke-width:0.758622;marker:none;enable-background:accumulate"
     id="path10707"
     d="m 22.342611,12.591722 c 0,0 -1.011507,-7.73e-4 -1.011507,0.96655 v 6.619704 h 6.069005 v -6.619704 c 0,-0.96655 -1.011499,-0.96655 -1.011499,-0.96655 0,0 -1.011505,0 -1.011505,0.96655 0,0.966556 -1.011499,0.966556 -1.011499,0.966556 0,0 -1.011498,0 -1.011498,-0.966556 0,-0.96655 -1.011497,-0.96655 -1.011497,-0.96655 z" />
  <path
     style="color:#bebebe;display:inline;overflow:visible;visibility:visible;fill:#75b723;fill-opacity:1;fill-rule:nonzero;stroke:none;stroke-width:0.758622;marker:none;enable-background:accumulate"
     id="path10725"
     d="m 24.365606,16.563892 c 0,0 -1.011991,7.73e-4 -1.011991,0.967543 0,0.966542 -1.01052,0.966057 -1.01052,0.966057 0,0 -1.011991,0.0015 -1.011991,-0.966057 v 3.652364 h -0.21633 -4.335422 l 7.586254,9.801381 7.586255,-9.801381 h -1.73358 l -2.600365,0.0015 v -0.0015 h -0.217807 v -3.652364 c 0,0.966542 -1.011992,0.966057 -1.011992,0.966057 0,0 -1.01052,4.72e-4 -1.01052,-0.966057 0,-0.966587 -1.011991,-0.967543 -1.011991,-0.967543 z" />
</svg>
