<?xml version="1.0" encoding="UTF-8" standalone="no"?>
<svg
   inkscape:version="1.4.3 (1:1.4.3+202512261035+0d15f75042)"
   sodipodi:docname="com.github.gabutakut.gabutdm.notfound.svg"
   version="1.1"
   width="48"
   height="48"
   id="svg3294"
   xmlns:inkscape="http://www.inkscape.org/namespaces/inkscape"
   xmlns:sodipodi="http://sodipodi.sourceforge.net/DTD/sodipodi-0.dtd"
   xmlns:xlink="http://www.w3.org/1999/xlink"
   xmlns="http://www.w3.org/2000/svg"
   xmlns:svg="http://www.w3.org/2000/svg"
   xmlns:rdf="http://www.w3.org/1999/02/22-rdf-syntax-ns#"
   xmlns:cc="http://creativecommons.org/ns#"
   xmlns:dc="http://purl.org/dc/elements/1.1/">
  <sodipodi:namedview
     inkscape:current-layer="svg3294"
     inkscape:window-maximized="1"
     inkscape:window-y="0"
     inkscape:window-x="0"
     inkscape:cy="43.25"
     inkscape:cx="0.625"
     inkscape:zoom="4"
     showborder="false"
     showgrid="true"
     id="namedview50"
     inkscape:window-height="705"
     inkscape:window-width="1366"
     inkscape:pageshadow="2"
     inkscape:pageopacity="0"
     guidetolerance="10"
     gridtolerance="10"
     objecttolerance="10"
     borderopacity="1"
     bordercolor="#666666"
     pagecolor="#ffffff"
     inkscape:showpageshadow="2"
     inkscape:pagecheckerboard="0"
     inkscape:deskcolor="#d1d1d1">
    <inkscape:grid
       visible="false"
       empspacing="4"
       id="grid980"
       type="xygrid"
       originx="0"
       originy="0"
       spacingy="1"
       spacingx="1"
       units="px" />
    <inkscape:grid
       visible="false"
       dotted="true"
       empspacing="2"
       spacingy="0.5"
       spacingx="0.5"
       id="grid982"
       type="xygrid"
       originx="0"
       originy="0"
       units="px" />
  </sodipodi:namedview>
  <defs
     id="defs3296">
    <linearGradient
       id="linearGradient1003"
       inkscape:collect="always">
      <stop
         id="stop999"
         offset="0"
         style="stop-color:#d4d4d4;stop-opacity:1" />
      <stop
         id="stop1001"
         offset="1"
         style="stop-color:#abacae;stop-opacity:1" />
    </linearGradient>
    <linearGradient
       id="linearGradient8838">
      <stop
         id="stop8840"
         style="stop-color:#7f7f7f;stop-opacity:1"
         offset="0" />
      <stop
         id="stop8842"
         style="stop-color:#808080;stop-opacity:0"
         offset="1" />
    </linearGradient>
    <radialGradient
       cx="62.625"
       cy="4.625"
       r="10.625"
       fx="62.625"
       fy="4.625"
       id="radialGradient2759"
       xlink:href="#linearGradient8838"
       gradientUnits="userSpaceOnUse"
       gradientTransform="matrix(2.149872,0,0,0.56700776,-110.63573,39.35312)" />
    <linearGradient
       id="linearGradient3277-442">
      <stop
         id="stop3378"
         style="stop-color:#575757;stop-opacity:1"
         offset="0" />
      <stop
         id="stop3380"
         style="stop-color:#333333;stop-opacity:1"
         offset="1" />
    </linearGradient>
    <linearGradient
       x1="32.892574"
       y1="27.988184"
       x2="31.364458"
       y2="29.484051"
       id="linearGradient2782"
       xlink:href="#linearGradient3277-442"
       gradientUnits="userSpaceOnUse"
       gradientTransform="matrix(1.0113456,0,0,1.0013346,-0.1475723,1.8143278)" />
    <linearGradient
       id="linearGradient11114-516">
      <stop
         id="stop3372"
         style="stop-color:#242424;stop-opacity:0.99215686"
         offset="0" />
      <stop
         id="stop3374"
         style="stop-color:#656565;stop-opacity:1"
         offset="1" />
    </linearGradient>
    <linearGradient
       x1="-172.65306"
       y1="99.667191"
       x2="-164.71831"
       y2="91.972626"
       id="linearGradient2780"
       xlink:href="#linearGradient11114-516"
       gradientUnits="userSpaceOnUse"
       gradientTransform="matrix(0.3936567,0,0,0.38976,101.37812,-4.2393119)" />
    <linearGradient
       id="linearGradient12093-170">
      <stop
         id="stop3384"
         style="stop-color:#ffffff;stop-opacity:1"
         offset="0" />
      <stop
         id="stop3386"
         style="stop-color:#ffffff;stop-opacity:0"
         offset="1" />
    </linearGradient>
    <linearGradient
       x1="277.573"
       y1="146.1507"
       x2="201.87128"
       y2="67.350082"
       id="linearGradient2778"
       xlink:href="#linearGradient12093-170"
       gradientUnits="userSpaceOnUse"
       gradientTransform="matrix(0.3936567,0,0,0.38976,-50.208746,-0.4726547)" />
    <linearGradient
       id="linearGradient4454-600">
      <stop
         id="stop3408"
         style="stop-color:#a1a1a1;stop-opacity:0.20784314"
         offset="0" />
      <stop
         id="stop3410"
         style="stop-color:#a1a1a1;stop-opacity:0.67843139"
         offset="1" />
    </linearGradient>
    <radialGradient
       gradientTransform="matrix(1.4889549,0,0,1.4383688,-7.506469,-10.003202)"
       cx="18.240929"
       cy="21.817987"
       r="8.3085051"
       fx="18.240929"
       fy="21.817987"
       id="radialGradient2776"
       xlink:href="#linearGradient4454-600"
       gradientUnits="userSpaceOnUse" />
    <linearGradient
       id="linearGradient4467-402">
      <stop
         id="stop3390"
         style="stop-color:#ffffff;stop-opacity:1"
         offset="0" />
      <stop
         id="stop3392"
         style="stop-color:#ffffff;stop-opacity:0.24761905"
         offset="1" />
    </linearGradient>
    <radialGradient
       cx="15.414371"
       cy="13.078408"
       r="6.65625"
       fx="15.414371"
       fy="13.078408"
       id="radialGradient2774"
       xlink:href="#linearGradient4467-402"
       gradientUnits="userSpaceOnUse"
       gradientTransform="matrix(3.0710057,0,0,2.3628614,-33.010584,-21.34546)" />
    <linearGradient
       id="linearGradient11104-770">
      <stop
         id="stop3402"
         style="stop-color:#333333;stop-opacity:1"
         offset="0" />
      <stop
         id="stop3404"
         style="stop-color:#333333;stop-opacity:0.6122449"
         offset="1" />
    </linearGradient>
    <linearGradient
       x1="41.541653"
       y1="68.291702"
       x2="41.485142"
       y2="4.5362983"
       id="linearGradient2772"
       xlink:href="#linearGradient11104-770"
       gradientUnits="userSpaceOnUse"
       gradientTransform="matrix(0.4037708,0,0,0.399774,0.5399201,2.6759154)" />
    <linearGradient
       id="linearGradient2300-465">
      <stop
         id="stop3396"
         style="stop-color:#343434;stop-opacity:0.97647059"
         offset="0" />
      <stop
         id="stop3398"
         style="stop-color:#929292;stop-opacity:1"
         offset="1" />
    </linearGradient>
    <linearGradient
       x1="173.09576"
       y1="75.31868"
       x2="173.09576"
       y2="11.949074"
       id="linearGradient2770"
       xlink:href="#linearGradient2300-465"
       gradientUnits="userSpaceOnUse"
       gradientTransform="matrix(0.4037708,0,0,0.399774,-51.833663,-0.3327449)" />
    <linearGradient
       id="linearGradient6209-717">
      <stop
         id="stop3366"
         style="stop-color:#979797;stop-opacity:1"
         offset="0" />
      <stop
         id="stop3368"
         style="stop-color:#000000;stop-opacity:0.34117648"
         offset="1" />
    </linearGradient>
    <linearGradient
       x1="173.09576"
       y1="75.31868"
       x2="173.09576"
       y2="11.949074"
       id="linearGradient2768"
       xlink:href="#linearGradient6209-717"
       gradientUnits="userSpaceOnUse"
       gradientTransform="matrix(0.3845313,0,0,0.3807249,-48.396976,0.258476)" />
    <radialGradient
       r="7.228416"
       fy="75.92881"
       fx="11.969189"
       cy="73.615715"
       cx="6.702713"
       gradientTransform="matrix(1.6600963,0,0,0.36315008,0.963735,-5.358552)"
       gradientUnits="userSpaceOnUse"
       id="radialGradient4643"
       xlink:href="#linearGradient8838-3" />
    <linearGradient
       id="linearGradient8838-3">
      <stop
         id="stop8840-6"
         style="stop-color:#000000;stop-opacity:1"
         offset="0" />
      <stop
         id="stop8842-7"
         style="stop-color:#000000;stop-opacity:0"
         offset="1" />
    </linearGradient>
    <linearGradient
       xlink:href="#linearGradient1975"
       id="linearGradient1977"
       x1="9.594286"
       y1="1.1771429"
       x2="9.594286"
       y2="15.52913"
       gradientUnits="userSpaceOnUse" />
    <linearGradient
       id="linearGradient1975">
      <stop
         style="stop-color:#d4d4d4;stop-opacity:1"
         offset="0"
         id="stop1971" />
      <stop
         style="stop-color:#abacae;stop-opacity:1"
         offset="1"
         id="stop1973" />
    </linearGradient>
    <radialGradient
       cx="22.099527"
       cy="24.537743"
       r="8.3085051"
       fx="22.099527"
       fy="24.537743"
       id="radialGradient2514"
       xlink:href="#linearGradient4454-600-5"
       gradientUnits="userSpaceOnUse"
       gradientTransform="matrix(0.66197227,0,0,0.66182423,-2.5982423,-4.2293814)" />
    <linearGradient
       id="linearGradient4454-600-5">
      <stop
         id="stop3408-3"
         style="stop-color:#ffffff;stop-opacity:0.4269006"
         offset="0" />
      <stop
         id="stop3410-5"
         style="stop-color:#ffffff;stop-opacity:0.36257309"
         offset="1" />
    </linearGradient>
    <radialGradient
       xlink:href="#linearGradient1785"
       id="radialGradient1787"
       cx="8.0722656"
       cy="5.9627013"
       fx="6"
       fy="3.3713689"
       r="4.5722656"
       gradientTransform="matrix(1,0,0,0.75741005,0.04385591,1.4445383)"
       gradientUnits="userSpaceOnUse" />
    <linearGradient
       id="linearGradient1785">
      <stop
         style="stop-color:#ffffff;stop-opacity:1;"
         offset="0"
         id="stop1781" />
      <stop
         style="stop-color:#ffffff;stop-opacity:0.5264706"
         offset="1"
         id="stop1783" />
    </linearGradient>
    <linearGradient
       gradientTransform="matrix(0.36448108,0,0,0.36448108,-17.093036,-1.2491013)"
       gradientUnits="userSpaceOnUse"
       xlink:href="#linearGradient4011"
       id="linearGradient12398"
       y2="44.340794"
       x2="71.204407"
       y1="6.2375584"
       x1="71.204407" />
    <linearGradient
       id="linearGradient4011">
      <stop
         offset="0"
         style="stop-color:#ffffff;stop-opacity:1"
         id="stop4013" />
      <stop
         offset="0.507761"
         style="stop-color:#ffffff;stop-opacity:0.23529412"
         id="stop4015-3" />
      <stop
         offset="0.83456558"
         style="stop-color:#ffffff;stop-opacity:0.15686275"
         id="stop4017-2" />
      <stop
         offset="1"
         style="stop-color:#ffffff;stop-opacity:0.39215687"
         id="stop4019" />
    </linearGradient>
    <linearGradient
       xlink:href="#linearGradient1848"
       id="linearGradient1850"
       x1="17.625607"
       y1="16.030643"
       x2="20.375607"
       y2="19.624393"
       gradientUnits="userSpaceOnUse"
       gradientTransform="translate(7.6310939,-18.513196)" />
    <linearGradient
       id="linearGradient1848">
      <stop
         style="stop-color:#a3907c;stop-opacity:1"
         offset="0"
         id="stop1844" />
      <stop
         style="stop-color:#8a715e;stop-opacity:1"
         offset="1"
         id="stop1846" />
    </linearGradient>
    <linearGradient
       xlink:href="#linearGradient1864"
       id="linearGradient1866"
       x1="19.577271"
       y1="14.756647"
       x2="19.577271"
       y2="21.284676"
       gradientUnits="userSpaceOnUse" />
    <linearGradient
       id="linearGradient1864">
      <stop
         style="stop-color:#f3f3f3;stop-opacity:1;"
         offset="0"
         id="stop1860" />
      <stop
         style="stop-color:#f3f3f3;stop-opacity:0;"
         offset="1"
         id="stop1862" />
    </linearGradient>
    <linearGradient
       gradientUnits="userSpaceOnUse"
       y2="30"
       x2="19"
       y1="1.5"
       x1="19"
       id="linearGradient1005"
       xlink:href="#linearGradient1003"
       inkscape:collect="always" />
    <linearGradient
       y2="44.340794"
       x2="71.204407"
       y1="6.2375584"
       x1="71.204407"
       gradientTransform="matrix(0.33745404,0,0,-0.33745404,-15.154291,16.550029)"
       gradientUnits="userSpaceOnUse"
       id="linearGradient1022"
       xlink:href="#linearGradient4011"
       inkscape:collect="always" />
    <radialGradient
       xlink:href="#linearGradient8838-3"
       id="radialGradient3300"
       gradientUnits="userSpaceOnUse"
       gradientTransform="matrix(0.3823536,7.5555777e-8,-1.8372241e-8,0.1115198,-5.9254271,36.335849)"
       cx="99.189415"
       cy="185.29727"
       fx="99.189415"
       fy="185.29727"
       r="62.769119" />
    <radialGradient
       xlink:href="#linearGradient8838-3"
       id="radialGradient4192"
       gradientUnits="userSpaceOnUse"
       gradientTransform="matrix(0.2549024,5.3967361e-8,-1.2248161e-8,0.07965545,6.7163816,44.240666)"
       cx="99.189415"
       cy="185.29727"
       fx="99.189415"
       fy="185.29727"
       r="62.769119" />
    <linearGradient
       gradientTransform="matrix(0.55620196,0,0,0.41581441,-1120.3654,-1302.4388)"
       gradientUnits="userSpaceOnUse"
       xlink:href="#linearGradient947"
       id="linearGradient11527-6-5"
       y2="3241.9966"
       x2="2035.1652"
       y1="3208.0737"
       x1="2035.1652" />
    <linearGradient
       id="linearGradient947">
      <stop
         id="stop943"
         style="stop-color:#ed5353;stop-opacity:1"
         offset="0" />
      <stop
         id="stop945"
         style="stop-color:#c6262e;stop-opacity:1"
         offset="1" />
    </linearGradient>
    <linearGradient
       gradientTransform="matrix(0.3789578,0,0,0.3789578,-13.55428,28.770381)"
       gradientUnits="userSpaceOnUse"
       xlink:href="#linearGradient4011"
       id="linearGradient12398-3"
       y2="44.340794"
       x2="71.204407"
       y1="6.2375584"
       x1="71.204407" />
  </defs>
  <metadata
     id="metadata3299">
    <rdf:RDF>
      <cc:Work
         rdf:about="">
        <dc:format>image/svg+xml</dc:format>
        <dc:type
           rdf:resource="http://purl.org/dc/dcmitype/StillImage" />
      </cc:Work>
    </rdf:RDF>
  </metadata>
  <path
     style="display:inline;overflow:visible;visibility:visible;opacity:0.3;fill:url(#radialGradient2759);fill-opacity:1;fill-rule:evenodd;stroke:none;stroke-width:1.89022;marker:none"
     id="path8836"
     d="m 46.842394,41.975534 a 22.84239,6.0244658 0 1 1 -45.68478,0 22.84239,6.0244658 0 1 1 45.68478,0 z" />
  <g
     style="stroke-width:0.5"
     transform="matrix(2,0,0,2,-0.090748,0)"
     id="g891">
    <path
       style="display:inline;overflow:visible;visibility:visible;opacity:0.15;fill:url(#radialGradient4643);fill-opacity:1;fill-rule:nonzero;stroke:none;stroke-width:0.4;marker:none"
       id="path10689"
       d="M 24.090748,21.375 C 24.090748,22.824748 18.718225,24 12.090883,24 5.46354,24 0.091018,22.824748 0.091018,21.375 c 0,-1.449747 5.372522,-2.625 11.999865,-2.625 6.627342,0 11.999865,1.175253 11.999865,2.625 z" />
    <g
       style="stroke-width:0.5"
       id="g876">
      <path
         transform="matrix(0.5,0,0,0.5,0.045374,0)"
         d="M 17.957031 1.5 A 14.5 14.5 0 0 0 3.5 16 A 14.5 14.5 0 0 0 18 30.5 A 14.5 14.5 0 0 0 25.503906 28.40625 C 25.52016 28.422904 25.535238 28.438731 25.550781 28.455078 C 25.610135 28.529088 25.669156 28.610563 25.730469 28.671875 L 37.378906 40.316406 C 38.150058 41.087558 39.435877 41.087556 40.207031 40.316406 C 40.978179 39.545252 40.978179 38.259433 40.207031 37.488281 L 35.189453 32.470703 L 35.199219 32.460938 L 28.914062 26.175781 C 28.807909 26.069628 28.713541 25.986923 28.609375 25.884766 A 14.5 14.5 0 0 0 32.5 16 A 14.5 14.5 0 0 0 18 1.5 A 14.5 14.5 0 0 0 17.957031 1.5 z M 17.900391 4.5 A 11.5 11.5 0 0 1 18 4.5 A 11.5 11.5 0 0 1 29.5 16 A 11.5 11.5 0 0 1 18 27.5 A 11.5 11.5 0 0 1 6.5 16 A 11.5 11.5 0 0 1 17.900391 4.5 z "
         style="opacity:0.5;vector-effect:none;fill:url(#linearGradient1005);fill-opacity:1;stroke:none;stroke-width:1;stroke-linecap:butt;stroke-linejoin:miter;stroke-miterlimit:4;stroke-dasharray:none;stroke-dashoffset:0;stroke-opacity:1;marker:none"
         id="path996" />
      <path
         style="display:inline;visibility:visible;opacity:0.2;fill:url(#radialGradient2514);fill-opacity:1;fill-rule:evenodd;stroke:none;stroke-width:0.30629;marker:none"
         id="path4452-62"
         d="M 14.545374,8 A 5.5,5.49877 0 1 1 3.5453741,8 5.5,5.49877 0 1 1 14.545374,8 Z" />
      <path
         id="path1018"
         style="opacity:0.5;vector-effect:none;fill:none;fill-opacity:1;stroke:#555761;stroke-width:1;stroke-linecap:butt;stroke-linejoin:miter;stroke-miterlimit:4;stroke-dasharray:none;stroke-dashoffset:0;stroke-opacity:1;marker:none"
         d="M 17.957031 1.5 A 14.5 14.5 0 0 0 3.5 16 A 14.5 14.5 0 0 0 18 30.5 A 14.5 14.5 0 0 0 25.503906 28.40625 C 25.52016 28.422904 25.535238 28.438731 25.550781 28.455078 C 25.610135 28.529088 25.669156 28.610563 25.730469 28.671875 L 37.378906 40.316406 C 38.150058 41.087558 39.435877 41.087556 40.207031 40.316406 C 40.978179 39.545252 40.978179 38.259433 40.207031 37.488281 L 35.189453 32.470703 L 35.199219 32.460938 L 28.914062 26.175781 C 28.807909 26.069628 28.713541 25.986923 28.609375 25.884766 A 14.5 14.5 0 0 0 32.5 16 A 14.5 14.5 0 0 0 18 1.5 A 14.5 14.5 0 0 0 17.957031 1.5 z M 17.900391 4.5 A 11.5 11.5 0 0 1 18 4.5 A 11.5 11.5 0 0 1 29.5 16 A 11.5 11.5 0 0 1 18 27.5 A 11.5 11.5 0 0 1 6.5 16 A 11.5 11.5 0 0 1 17.900391 4.5 z "
         transform="matrix(0.5,0,0,0.5,0.045374,0)" />
      <path
         style="display:inline;visibility:visible;opacity:0.15;fill:url(#radialGradient1787);fill-opacity:1;fill-rule:evenodd;stroke:none;stroke-width:0.30629;marker:none"
         d="M 9.2040121,2.5 A 5.5,5.49877 0 0 0 3.5438559,7.9980469 5.5,5.49877 0 0 0 3.7372153,9.4238281 12,11.997316 0 0 0 12.688387,3.8808594 5.5,5.49877 0 0 0 9.2040121,2.5 Z"
         id="path4452-6" />
      <path
         d="m 15.795374,7.9928879 c 0,3.7241251 -3.019122,6.7431411 -6.7428144,6.7431411 -3.7240331,0 -6.7429785,-3.019052 -6.7429785,-6.7431411 0,-3.7239475 3.0189454,-6.7426586 6.7429785,-6.7426586 3.7236924,0 6.7428144,3.0187111 6.7428144,6.7426586 z"
         id="path8655-6-0-9-5"
         style="color:#000000;display:inline;overflow:visible;visibility:visible;opacity:0.5;fill:none;stroke:url(#linearGradient12398);stroke-width:0.5;stroke-linecap:round;stroke-linejoin:round;stroke-miterlimit:4;stroke-dasharray:none;stroke-dashoffset:0;stroke-opacity:1;marker:none;enable-background:accumulate" />
      <rect
         style="opacity:1;vector-effect:none;fill:url(#linearGradient1850);fill-opacity:1;stroke:none;stroke-width:0.5;stroke-linecap:butt;stroke-linejoin:miter;stroke-miterlimit:4;stroke-dasharray:none;stroke-dashoffset:0;stroke-opacity:1;marker:none"
         id="rect1789"
         width="9"
         height="3"
         x="21.662951"
         y="-1.5450522"
         rx="0.24999999"
         ry="0.24999999"
         transform="rotate(45)" />
      <path
         sodipodi:nodetypes="ccc"
         style="opacity:0.5;fill:none;stroke:url(#linearGradient1866);stroke-width:0.5px;stroke-linecap:butt;stroke-linejoin:miter;stroke-opacity:1"
         d="M 14.795374,16.5 16.3984,14.943551 22.245581,20.75"
         id="path1852" />
      <rect
         transform="rotate(45)"
         ry="0.24999999"
         rx="0.24999999"
         y="-1.5450522"
         x="21.662951"
         height="3"
         width="9"
         id="rect874"
         style="opacity:0.5;vector-effect:none;fill:none;fill-opacity:1;stroke:#57392d;stroke-width:0.5;stroke-linecap:butt;stroke-linejoin:miter;stroke-miterlimit:4;stroke-dasharray:none;stroke-dashoffset:0;stroke-opacity:1;marker:none" />
      <path
         style="color:#000000;display:inline;overflow:visible;visibility:visible;opacity:0.5;fill:none;stroke:url(#linearGradient1022);stroke-width:0.5;stroke-linecap:round;stroke-linejoin:round;stroke-miterlimit:4;stroke-dasharray:none;stroke-dashoffset:0;stroke-opacity:1;marker:none;enable-background:accumulate"
         id="path1020"
         d="m 15.295374,7.9933527 c 0,-3.4479732 -2.795248,-6.2431232 -6.2428205,-6.2431232 -3.4478882,0 -6.2429724,2.795183 -6.2429724,6.2431232 0,3.4478093 2.7950842,6.2426763 6.2429724,6.2426763 3.4475725,0 6.2428205,-2.794867 6.2428205,-6.2426763 z" />
    </g>
  </g>
  <path
     r="11.5"
     cy="16"
     cx="18"
     id="path988"
     style="opacity:0.5;fill:#3689e6;stroke:#206b00;stroke-width:1;stroke-linecap:round;stop-color:#000000" />
  <path
     id="path1024"
     d="M 27.5,26 31,29.5"
     style="fill:none;stroke:#ffffff;stroke-width:1px;stroke-linecap:butt;stroke-linejoin:miter;stroke-opacity:1;opacity:0.3" />
  <g
     id="g4198"
     transform="matrix(0.24599005,0,0,0.24599005,5.7580191,30.508021)">
    <path
       d="m 55.999998,57.0017 a 24,6.9985714 0 1 1 -47.9999991,0 24,6.9985714 0 1 1 47.9999991,0 z"
       id="path3818-0"
       style="opacity:0.2;fill:url(#radialGradient3300);fill-opacity:1;stroke:none" />
    <path
       style="opacity:0.4;fill:url(#radialGradient4192);fill-opacity:1;stroke:none"
       id="path4190"
       d="m 47.999998,59.0017 a 16,4.9988822 0 1 1 -31.999999,0 16,4.9988822 0 1 1 31.999999,0 z" />
  </g>
  <path
     d="m 13.629703,31.122996 c -4.004004,0 -7.2567084,3.252704 -7.2567084,7.256705 0,4.004003 3.2527044,7.256707 7.2567084,7.256707 4.003997,0 7.256709,-3.252704 7.256704,-7.256707 0,-4.004001 -3.252707,-7.256705 -7.256704,-7.256705 z"
     id="path2555-7-8-5-0-9"
     style="color:#000000;display:inline;overflow:visible;visibility:visible;opacity:0.99;fill:url(#linearGradient11527-6-5);fill-opacity:1;fill-rule:nonzero;stroke:none;stroke-width:0.24599;marker:none;enable-background:accumulate" />
  <path
     d="m 20.640416,38.37945 c 0,3.872043 -3.13904,7.010971 -7.010631,7.010971 -3.8719465,0 -7.0108005,-3.138965 -7.0108005,-7.010971 0,-3.871858 3.138854,-7.010468 7.0108005,-7.010468 3.871591,0 7.010631,3.13861 7.010631,7.010468 z"
     id="path8655-6-0-9-5-0"
     style="color:#000000;display:inline;overflow:visible;visibility:visible;opacity:0.4;fill:none;stroke:url(#linearGradient12398-3);stroke-width:0.24599;stroke-linecap:round;stroke-linejoin:round;stroke-miterlimit:4;stroke-dasharray:none;stroke-dashoffset:0;stroke-opacity:1;marker:none;enable-background:accumulate" />
  <path
     d="m 13.629702,31.122996 c -4.0040005,0 -7.2567066,3.252705 -7.2567066,7.256705 0,4.004002 3.2527061,7.256708 7.2567066,7.256707 4.004001,0 7.256709,-3.252705 7.256704,-7.256707 0,-4.004 -3.252703,-7.256705 -7.256704,-7.256705 z"
     id="path2555-4"
     style="color:#000000;display:inline;overflow:visible;visibility:visible;opacity:0.5;vector-effect:none;fill:none;fill-opacity:1;stroke:#7a0000;stroke-width:0.24599;stroke-linecap:round;stroke-linejoin:round;stroke-miterlimit:4;stroke-dasharray:none;stroke-dashoffset:0;stroke-opacity:1;marker:none;enable-background:accumulate" />
  <path
     style="opacity:0.05;vector-effect:none;fill:#7a0000;fill-opacity:1;stroke:none;stroke-width:0.207428;stroke-linecap:butt;stroke-linejoin:miter;stroke-miterlimit:4;stroke-dasharray:none;stroke-dashoffset:0;stroke-opacity:1;marker:none"
     id="path4159-3-3-6"
     d="m 13.629701,33.4599 c -0.676369,0 -1.229951,0.553583 -1.229951,1.229951 0,1.038599 0.33006,3.31311 0.657735,5.93451 a 0.24601465,0.24601465 0 0 0 0.244069,0.215242 h 0.656293 a 0.24601465,0.24601465 0 0 0 0.244069,-0.215242 c 0.327675,-2.6214 0.657735,-4.895911 0.657735,-5.93451 0,-0.676368 -0.553581,-1.229951 -1.22995,-1.229951 z m 0,7.871682 c -0.676369,0 -1.229951,0.553582 -1.229951,1.22995 0,0.676369 0.553582,1.229951 1.229951,1.229951 0.676369,0 1.22995,-0.553582 1.22995,-1.229951 0,-0.676368 -0.553581,-1.22995 -1.22995,-1.22995 z" />
  <path
     style="opacity:0.15;vector-effect:none;fill:#7a0000;fill-opacity:1;stroke:none;stroke-width:0.207428;stroke-linecap:butt;stroke-linejoin:miter;stroke-miterlimit:4;stroke-dasharray:none;stroke-dashoffset:0;stroke-opacity:1;marker:none"
     d="m 13.629701,33.705891 c -0.543426,0 -0.98396,0.440534 -0.98396,0.98396 0,0.983959 0.327986,3.279867 0.655972,5.903761 h 0.655975 c 0.327986,-2.623894 0.655974,-4.919802 0.655974,-5.903761 0,-0.543426 -0.440536,-0.98396 -0.983961,-0.98396 z m 0,7.871682 c -0.543426,0 -0.98396,0.440534 -0.98396,0.983959 0,0.543427 0.440534,0.983961 0.98396,0.983961 0.543425,0 0.983961,-0.440534 0.983961,-0.983961 0,-0.543425 -0.440536,-0.983959 -0.983961,-0.983959 z"
     id="path4159-3-3" />
  <path
     style="fill:#ffffff;fill-opacity:1;stroke:none;stroke-width:0.24599;stroke-linejoin:round;stroke-miterlimit:4;stroke-dasharray:none;stroke-opacity:0.498039"
     d="m 13.629701,33.4599 c -0.543426,0 -0.98396,0.440536 -0.98396,0.983961 0,0.98396 0.327986,3.279868 0.655972,5.903761 h 0.655975 c 0.327986,-2.623893 0.655974,-4.919801 0.655974,-5.903761 0,-0.543425 -0.440536,-0.983961 -0.983961,-0.983961 z m 0,7.871683 c -0.543426,0 -0.98396,0.440534 -0.98396,0.98396 0,0.543426 0.440534,0.98396 0.98396,0.98396 0.543425,0 0.983961,-0.440534 0.983961,-0.98396 0,-0.543426 -0.440536,-0.98396 -0.983961,-0.98396 z"
     id="path4159-3" />
</svg>
