<?xml version="1.0" encoding="UTF-8" standalone="no"?>
<svg
   id="svg4031"
   height="48"
   width="48"
   version="1.1"
   sodipodi:docname="com.github.gabutakut.gabutdm.amchoking.svg"
   inkscape:version="1.2.2 (b0a8486541, 2022-12-01)"
   xmlns:inkscape="http://www.inkscape.org/namespaces/inkscape"
   xmlns:sodipodi="http://sodipodi.sourceforge.net/DTD/sodipodi-0.dtd"
   xmlns:xlink="http://www.w3.org/1999/xlink"
   xmlns="http://www.w3.org/2000/svg"
   xmlns:svg="http://www.w3.org/2000/svg"
   xmlns:rdf="http://www.w3.org/1999/02/22-rdf-syntax-ns#"
   xmlns:cc="http://creativecommons.org/ns#"
   xmlns:dc="http://purl.org/dc/elements/1.1/">
  <sodipodi:namedview
     id="namedview29"
     pagecolor="#ffffff"
     bordercolor="#000000"
     borderopacity="0.25"
     inkscape:showpageshadow="2"
     inkscape:pageopacity="0.0"
     inkscape:pagecheckerboard="0"
     inkscape:deskcolor="#d1d1d1"
     showgrid="false"
     inkscape:zoom="2.6197916"
     inkscape:cx="-7.4433401"
     inkscape:cy="-8.2067596"
     inkscape:window-width="1366"
     inkscape:window-height="705"
     inkscape:window-x="0"
     inkscape:window-y="0"
     inkscape:window-maximized="1"
     inkscape:current-layer="svg4031" />
  <defs
     id="defs4033">
    <linearGradient
       id="linearGradient4011">
      <stop
         offset="0"
         style="stop-color:#ffffff;stop-opacity:1"
         id="stop4013" />
      <stop
         offset="0.507761"
         style="stop-color:#ffffff;stop-opacity:0.23529412"
         id="stop4015" />
      <stop
         offset="0.83456558"
         style="stop-color:#ffffff;stop-opacity:0.15686275"
         id="stop4017" />
      <stop
         offset="1"
         style="stop-color:#ffffff;stop-opacity:0.39215687"
         id="stop4019" />
    </linearGradient>
    <linearGradient
       gradientTransform="matrix(1.054054,0,0,1.054054,-51.611001,-2.7279009)"
       gradientUnits="userSpaceOnUse"
       xlink:href="#linearGradient4011"
       id="linearGradient3012"
       y2="44.340794"
       x2="71.204407"
       y1="6.2375584"
       x1="71.204407" />
    <linearGradient
       id="linearGradient27416-1-2-0-1">
      <stop
         offset="0"
         style="stop-color:#43d654;stop-opacity:1;"
         id="stop27420-2-0-8-7" />
      <stop
         offset="1"
         style="stop-color:#4a9921;stop-opacity:1;"
         id="stop27422-3-5-3-3" />
    </linearGradient>
    <linearGradient
       y2="74.40242"
       x2="-53.44228"
       y1="41.401314"
       x1="-53.44228"
       gradientTransform="matrix(0.67764878,0,0,1.2335161,60.2151,-47.569187)"
       gradientUnits="userSpaceOnUse"
       id="linearGradient3066"
       xlink:href="#linearGradient27416-1-2-0-1" />
    <radialGradient
       xlink:href="#linearGradient3820-7-2"
       id="radialGradient3300-8"
       gradientUnits="userSpaceOnUse"
       gradientTransform="matrix(0.3823536,7.5555777e-8,-1.8372241e-8,0.1115198,-5.9254271,36.335849)"
       cx="99.189415"
       cy="185.29727"
       fx="99.189415"
       fy="185.29727"
       r="62.769119" />
    <linearGradient
       id="linearGradient3820-7-2">
      <stop
         id="stop3822-2-6"
         style="stop-color:#000000;stop-opacity:1"
         offset="0" />
      <stop
         id="stop3824-1-2"
         style="stop-color:#000000;stop-opacity:0"
         offset="1" />
    </linearGradient>
    <radialGradient
       xlink:href="#linearGradient3820-7-2"
       id="radialGradient4192-6"
       gradientUnits="userSpaceOnUse"
       gradientTransform="matrix(0.2549024,5.3967361e-8,-1.2248161e-8,0.07965545,6.7163816,44.240666)"
       cx="99.189415"
       cy="185.29727"
       fx="99.189415"
       fy="185.29727"
       r="62.769119" />
    <radialGradient
       xlink:href="#linearGradient3820-7-2"
       id="radialGradient3300"
       gradientUnits="userSpaceOnUse"
       gradientTransform="matrix(0.3823536,7.5555777e-8,-1.8372241e-8,0.1115198,-5.9254271,36.335849)"
       cx="99.189415"
       cy="185.29727"
       fx="99.189415"
       fy="185.29727"
       r="62.769119" />
    <radialGradient
       xlink:href="#linearGradient3820-7-2"
       id="radialGradient4192"
       gradientUnits="userSpaceOnUse"
       gradientTransform="matrix(0.2549024,5.3967361e-8,-1.2248161e-8,0.07965545,6.7163816,44.240666)"
       cx="99.189415"
       cy="185.29727"
       fx="99.189415"
       fy="185.29727"
       r="62.769119" />
    <linearGradient
       gradientTransform="matrix(1.6204373,0,0,1.2114326,-3279.8239,-3882.6055)"
       gradientUnits="userSpaceOnUse"
       xlink:href="#linearGradient947"
       id="linearGradient11527-6-5"
       y2="3241.9966"
       x2="2035.1652"
       y1="3208.0737"
       x1="2035.1652" />
    <linearGradient
       id="linearGradient947">
      <stop
         id="stop943"
         style="stop-color:#ed5353;stop-opacity:1"
         offset="0" />
      <stop
         id="stop945"
         style="stop-color:#c6262e;stop-opacity:1"
         offset="1" />
    </linearGradient>
    <linearGradient
       gradientTransform="matrix(1.1040547,0,0,1.1040547,-55.24346,-4.2640783)"
       gradientUnits="userSpaceOnUse"
       xlink:href="#linearGradient4011"
       id="linearGradient12398-3"
       y2="44.340794"
       x2="71.204407"
       y1="6.2375584"
       x1="71.204407" />
  </defs>
  <metadata
     id="metadata4036">
    <rdf:RDF>
      <cc:Work
         rdf:about="">
        <dc:format>image/svg+xml</dc:format>
        <dc:type
           rdf:resource="http://purl.org/dc/dcmitype/StillImage" />
        <dc:title />
      </cc:Work>
    </rdf:RDF>
  </metadata>
  <g
     id="g4198"
     transform="matrix(0.71666675,0,0,0.71666675,1.0209423,0.79835572)">
    <path
       d="m 55.999998,57.0017 a 24,6.9985714 0 1 1 -47.9999991,0 24,6.9985714 0 1 1 47.9999991,0 z"
       id="path3818-0"
       style="opacity:0.2;fill:url(#radialGradient3300);fill-opacity:1;stroke:none" />
    <path
       style="opacity:0.4;fill:url(#radialGradient4192);fill-opacity:1;stroke:none"
       id="path4190"
       d="m 47.999998,59.0017 a 16,4.9988822 0 1 1 -31.999999,0 16,4.9988822 0 1 1 31.999999,0 z" />
  </g>
  <path
     d="m 23.954283,2.5900207 c -11.665253,0 -21.1416727,9.4764213 -21.1416727,21.1416693 0,11.665249 9.4764197,21.14167 21.1416727,21.14167 11.665236,0 21.141677,-9.476421 21.141663,-21.14167 0,-11.665248 -9.476427,-21.1416693 -21.141663,-21.1416693 z"
     id="path2555-7-8-5-0-9"
     style="color:#000000;display:inline;overflow:visible;visibility:visible;opacity:0.99;fill:url(#linearGradient11527-6-5);fill-opacity:1;fill-rule:nonzero;stroke:none;stroke-width:0.716667;marker:none;enable-background:accumulate" />
  <path
     d="m 44.379279,23.73096 c 0,11.280798 -9.145272,20.425741 -20.424753,20.425741 -11.280522,0 -20.4252497,-9.145051 -20.4252497,-20.425741 0,-11.280261 9.1447277,-20.4242803 20.4252497,-20.4242803 11.279481,0 20.424753,9.1440193 20.424753,20.4242803 z"
     id="path8655-6-0-9-5-0"
     style="color:#000000;display:inline;overflow:visible;visibility:visible;opacity:0.4;fill:none;stroke:url(#linearGradient12398-3);stroke-width:0.716667;stroke-linecap:round;stroke-linejoin:round;stroke-miterlimit:4;stroke-dasharray:none;stroke-dashoffset:0;stroke-opacity:1;marker:none;enable-background:accumulate" />
  <path
     d="m 23.954283,2.5900207 c -11.665244,0 -21.1416717,9.4764253 -21.1416717,21.1416683 0,11.665245 9.4764277,21.141675 21.1416717,21.141671 11.665242,0 21.141676,-9.476426 21.141662,-21.141671 0,-11.665243 -9.47642,-21.1416683 -21.141662,-21.1416683 z"
     id="path2555-4"
     style="color:#000000;display:inline;overflow:visible;visibility:visible;opacity:0.5;vector-effect:none;fill:none;fill-opacity:1;stroke:#7a0000;stroke-width:0.716667;stroke-linecap:round;stroke-linejoin:round;stroke-miterlimit:4;stroke-dasharray:none;stroke-dashoffset:0;stroke-opacity:1;marker:none;enable-background:accumulate" />
  <path
     d="m 23.917946,13.13018 c -4.81615,0 -8.720411,3.754098 -8.720411,8.385012 0,4.630913 3.904261,8.38501 8.720411,8.38501 4.81615,0 8.720412,-3.754097 8.720412,-8.38501 0,-4.630914 -3.904262,-8.385012 -8.720412,-8.385012 z m -3.196785,18.174512 c -3.92566,0 -7.321242,2.309537 -9.03485,5.701809 3.059693,3.263572 7.405105,5.303518 12.231635,5.303518 4.826531,0 9.171942,-2.039946 12.231635,-5.303518 -1.713608,-3.392272 -5.109189,-5.701809 -9.034849,-5.701809 z"
     id="path3840-6"
     style="color:#000000;display:inline;overflow:visible;visibility:visible;opacity:0.05;fill:#007367;fill-opacity:1;fill-rule:nonzero;stroke:#007367;stroke-width:2.04435;stroke-miterlimit:4;stroke-dasharray:none;stroke-opacity:1;marker:none;enable-background:accumulate" />
  <path
     style="color:#000000;display:inline;overflow:visible;visibility:visible;opacity:0.15;fill:#007367;fill-opacity:1;fill-rule:nonzero;stroke:none;stroke-width:2.04435;marker:none;enable-background:accumulate"
     id="path3070-2"
     d="m 23.917946,13.13018 c -4.81615,0 -8.720411,3.754098 -8.720411,8.385012 0,4.630913 3.904261,8.38501 8.720411,8.38501 4.81615,0 8.720412,-3.754097 8.720412,-8.38501 0,-4.630914 -3.904262,-8.385012 -8.720412,-8.385012 z m -3.196785,18.174512 c -3.92566,0 -7.321242,2.309537 -9.03485,5.701809 3.059693,3.263572 7.405105,5.303518 12.231635,5.303518 4.826531,0 9.171942,-2.039946 12.231635,-5.303518 -1.713608,-3.392272 -5.109189,-5.701809 -9.034849,-5.701809 z" />
  <path
     d="m 23.917946,12.108008 c -4.81615,0 -8.720411,3.754098 -8.720411,8.385011 0,4.630913 3.904261,8.38501 8.720411,8.38501 4.81615,0 8.720412,-3.754097 8.720412,-8.38501 0,-4.630913 -3.904262,-8.385011 -8.720412,-8.385011 z m -3.196785,18.174511 c -3.92566,0 -7.321242,2.309538 -9.03485,5.701808 3.059693,3.263573 7.405105,5.303519 12.231635,5.303519 4.826531,0 9.171942,-2.039946 12.231635,-5.303519 -1.713608,-3.39227 -5.109189,-5.701808 -9.034849,-5.701808 z"
     id="rect3049-9"
     style="color:#000000;display:inline;overflow:visible;visibility:visible;fill:#ffffff;fill-opacity:1;fill-rule:nonzero;stroke:none;stroke-width:2.04435;marker:none;enable-background:accumulate" />
</svg>
