<?xml version="1.0" encoding="UTF-8" standalone="no"?>
<svg
   version="1.1"
   width="64"
   height="64"
   id="svg3489"
   sodipodi:docname="com.github.gabutakut.gabutdm.hash.svg"
   inkscape:version="1.2.2 (1:1.2.2+202212051552+b0a8486541)"
   xmlns:inkscape="http://www.inkscape.org/namespaces/inkscape"
   xmlns:sodipodi="http://sodipodi.sourceforge.net/DTD/sodipodi-0.dtd"
   xmlns:xlink="http://www.w3.org/1999/xlink"
   xmlns="http://www.w3.org/2000/svg"
   xmlns:svg="http://www.w3.org/2000/svg"
   xmlns:rdf="http://www.w3.org/1999/02/22-rdf-syntax-ns#"
   xmlns:cc="http://creativecommons.org/ns#"
   xmlns:dc="http://purl.org/dc/elements/1.1/">
  <sodipodi:namedview
     id="namedview28"
     pagecolor="#ffffff"
     bordercolor="#666666"
     borderopacity="1.0"
     inkscape:pageshadow="2"
     inkscape:pageopacity="0.0"
     inkscape:pagecheckerboard="0"
     showgrid="false"
     inkscape:zoom="17.625"
     inkscape:cx="35.177305"
     inkscape:cy="36.141844"
     inkscape:window-width="1366"
     inkscape:window-height="708"
     inkscape:window-x="0"
     inkscape:window-y="0"
     inkscape:window-maximized="1"
     inkscape:current-layer="svg3489"
     inkscape:showpageshadow="2"
     inkscape:deskcolor="#d1d1d1" />
  <defs
     id="defs3491">
    <linearGradient
       inkscape:collect="always"
       id="linearGradient1797">
      <stop
         style="stop-color:#9bdb4d;stop-opacity:0.99215686;"
         offset="0"
         id="stop1793" />
      <stop
         style="stop-color:#69b825;stop-opacity:0.99607843;"
         offset="1"
         id="stop1795" />
    </linearGradient>
    <linearGradient
       id="linearGradient4806">
      <stop
         id="stop4808"
         style="stop-color:#ffffff;stop-opacity:1"
         offset="0" />
      <stop
         id="stop4810"
         style="stop-color:#ffffff;stop-opacity:0.23529412"
         offset="0.42447853" />
      <stop
         id="stop4812"
         style="stop-color:#ffffff;stop-opacity:0.15686275"
         offset="0.82089913" />
      <stop
         id="stop4814"
         style="stop-color:#ffffff;stop-opacity:0.39215687"
         offset="1" />
    </linearGradient>
    <linearGradient
       id="linearGradient3820-7-2">
      <stop
         id="stop3822-2-6"
         style="stop-color:#000000;stop-opacity:1"
         offset="0" />
      <stop
         id="stop3824-1-2"
         style="stop-color:#000000;stop-opacity:0"
         offset="1" />
    </linearGradient>
    <linearGradient
       xlink:href="#linearGradient4806"
       id="linearGradient3293"
       gradientUnits="userSpaceOnUse"
       gradientTransform="matrix(2.3268746,0,0,2.3268746,-135.94475,-32.842783)"
       x1="71.204407"
       y1="15.369057"
       x2="71.204407"
       y2="40.495617" />
    <radialGradient
       xlink:href="#linearGradient3820-7-2"
       id="radialGradient3300"
       gradientUnits="userSpaceOnUse"
       gradientTransform="matrix(0.3823536,7.5555777e-8,-1.8372241e-8,0.1115198,-5.9254271,36.335849)"
       cx="99.189415"
       cy="185.29727"
       fx="99.189415"
       fy="185.29727"
       r="62.769119" />
    <radialGradient
       xlink:href="#linearGradient3820-7-2"
       id="radialGradient4192"
       gradientUnits="userSpaceOnUse"
       gradientTransform="matrix(0.2549024,5.3967361e-8,-1.2248161e-8,0.07965545,6.7163816,44.240666)"
       cx="99.189415"
       cy="185.29727"
       fx="99.189415"
       fy="185.29727"
       r="62.769119" />
    <linearGradient
       gradientTransform="matrix(2.261075,0,0,1.6903709,-4577.9225,-5418.7019)"
       gradientUnits="userSpaceOnUse"
       xlink:href="#linearGradient27416-1-5"
       id="linearGradient11527-6-5"
       y2="3241.9966"
       x2="2035.1652"
       y1="3208.0737"
       x1="2035.1652" />
    <linearGradient
       id="linearGradient27416-1-5">
      <stop
         id="stop27420-2-2"
         style="stop-color:#9bdb4d;stop-opacity:1"
         offset="0" />
      <stop
         id="stop27422-3-2"
         style="stop-color:#68b723;stop-opacity:1"
         offset="1" />
    </linearGradient>
    <linearGradient
       inkscape:collect="always"
       xlink:href="#linearGradient1797"
       id="linearGradient1799"
       x1="32.072701"
       y1="5.4498243"
       x2="32.688656"
       y2="59.050003"
       gradientUnits="userSpaceOnUse" />
  </defs>
  <metadata
     id="metadata3494">
    <rdf:RDF>
      <cc:Work
         rdf:about="">
        <dc:format>image/svg+xml</dc:format>
        <dc:type
           rdf:resource="http://purl.org/dc/dcmitype/StillImage" />
      </cc:Work>
    </rdf:RDF>
  </metadata>
  <g
     id="g4198">
    <path
       d="m 55.999998,57.0017 a 24,6.9985714 0 1 1 -47.9999991,0 24,6.9985714 0 1 1 47.9999991,0 z"
       id="path3818-0"
       style="opacity:0.2;fill:url(#radialGradient3300);fill-opacity:1;stroke:none" />
    <path
       style="opacity:0.4;fill:url(#radialGradient4192);fill-opacity:1;stroke:none"
       id="path4190"
       d="m 47.999998,59.0017 a 16,4.9988822 0 1 1 -31.999999,0 16,4.9988822 0 1 1 31.999999,0 z" />
  </g>
  <path
     style="color:#000000;display:inline;overflow:visible;visibility:visible;opacity:0.98999999;fill:url(#linearGradient11527-6-5);fill-opacity:1.0;fill-rule:nonzero;stroke:none;stroke-width:0.99999988;marker:none;enable-background:accumulate"
     id="path2555-7-8-5-0-9"
     d="M 32.000001,2.499998 C 15.722912,2.499998 2.5,15.722908 2.5,31.999997 2.5,48.277086 15.722912,61.499998 32.000001,61.499998 48.277088,61.499998 61.500027,48.277086 61.5,31.999997 61.5,15.722908 48.277088,2.499998 32.000001,2.499998 Z" />
  <path
     style="opacity:0.5;color:#000000;fill:none;stroke:#206b00;stroke-width:0.99999988;stroke-linecap:round;stroke-linejoin:round;stroke-miterlimit:4;stroke-opacity:1;stroke-dasharray:none;stroke-dashoffset:0;marker:none;visibility:visible;display:inline;overflow:visible;enable-background:accumulate;fill-opacity:1;fill-rule:nonzero;clip-rule:nonzero;isolation:auto;mix-blend-mode:normal;color-interpolation:sRGB;color-interpolation-filters:linearRGB;solid-color:#000000;solid-opacity:1;filter-blend-mode:normal;filter-gaussianBlur-deviation:0;color-rendering:auto;image-rendering:auto;shape-rendering:auto;text-rendering:auto;font-variant-east_asian:normal;vector-effect:none"
     id="path2555-7-1"
     d="m 32,2.499999 c -16.277082,0 -29.5,13.222915 -29.5,29.499998 0,16.277083 13.222918,29.500005 29.5,29.5 16.27708,0 29.50001,-13.222917 29.5,-29.5 C 61.5,15.722914 48.27708,2.499999 32,2.499999 z" />
  <path
     style="opacity:0.5;color:#000000;fill:none;stroke:url(#linearGradient3293);stroke-width:1;stroke-linecap:round;stroke-linejoin:round;stroke-miterlimit:4;stroke-opacity:1;stroke-dasharray:none;stroke-dashoffset:0;marker:none;visibility:visible;display:inline;overflow:visible;enable-background:accumulate"
     id="path3019"
     d="m 60.50001,31.999999 c 0,15.740115 -12.7599,28.499999 -28.50002,28.499999 -15.740099,0 -28.499991,-12.759884 -28.499991,-28.499999 0,-15.740116 12.759892,-28.5000013 28.499991,-28.5000013 15.74012,0 28.50002,12.7598853 28.50002,28.5000013 z" />
  <path
     style="color:#000000;display:inline;overflow:visible;visibility:visible;opacity:0.5;fill:#ffffff;fill-opacity:1;fill-rule:nonzero;stroke:none;stroke-width:1.64632;marker:none;enable-background:accumulate"
     id="path2922-6-6-0-9-7"
     d="m 145.30956,-19.656659 5.65676,5.09111 -19.00674,25.115991 -14.70755,-12.671121 4.8648,-6.448729 8.59827,7.466928 z" />
  <path
     style="color:#000000;display:inline;overflow:visible;visibility:visible;opacity:1;fill:#206b00;fill-opacity:1;fill-rule:nonzero;stroke:none;stroke-width:1.64632;marker:none;enable-background:accumulate"
     id="path2922-6-6-0-9-4-2"
     d="m 95.160147,-59.733085 5.656753,5.09111 -19.00674,25.115991 -14.707548,-12.671121 4.864803,-6.448729 8.598267,7.466928 z" />
  <rect
     style="fill:#f9f9f9;fill-opacity:0.992157;stroke:none;stroke-width:3.23462;stroke-opacity:0.501961"
     id="rect10863"
     width="35.234486"
     height="40.687943"
     x="16.075356"
     y="12.011525" />
  <path
     class="st0"
     d="m 31.849206,5.1857311 c 14.95074,0 27.072604,12.1218659 27.072604,27.0726049 0,14.950741 -12.121864,27.072605 -27.072604,27.072605 -14.950741,0 -27.0726047,-12.121864 -27.0726047,-27.072605 0,-14.950739 12.1218637,-27.0726049 27.0726047,-27.0726049 z m 7.354195,11.3066899 c 0.167441,-0.797549 0.947365,-1.308685 1.740507,-1.141244 0.797549,0.167441 1.308686,0.947365 1.141245,1.740509 l -1.683225,8.098868 h 3.736583 c 0.815175,0 1.476127,0.660952 1.476127,1.476127 0,0.815174 -0.660952,1.476126 -1.476127,1.476126 h -4.353472 l -1.855073,8.918449 h 6.208545 c 0.815175,0 1.476127,0.660953 1.476127,1.476127 0,0.815174 -0.660952,1.476127 -1.476127,1.476127 H 37.32189 l -1.665599,8.010741 C 35.488849,48.8218 34.708926,49.332937 33.915783,49.165495 33.118234,48.998054 32.607097,48.21813 32.774539,47.424987 L 34.31676,40.01351 h -7.931427 l -1.656787,7.971084 c -0.16744,0.797549 -0.947364,1.308686 -1.740507,1.141244 -0.797549,-0.167441 -1.308686,-0.947365 -1.141244,-1.740508 l 1.533409,-7.37182 h -3.815898 c -0.815174,0 -1.476127,-0.660953 -1.476127,-1.476127 0,-0.815174 0.660953,-1.476127 1.476127,-1.476127 h 4.428381 l 1.84626,-8.918449 h -6.283453 c -0.815175,0 -1.476127,-0.660952 -1.476127,-1.476126 0,-0.815175 0.660952,-1.476127 1.476127,-1.476127 h 6.900341 l 1.806603,-8.680507 c 0.167441,-0.797549 0.947365,-1.308686 1.740508,-1.141245 0.797548,0.167442 1.308685,0.947365 1.141243,1.740508 l -1.683224,8.081244 h 7.931427 z m -4.278564,20.568835 1.855073,-8.918449 h -7.931428 l -1.855073,8.918449 z"
     id="path4"
     style="clip-rule:evenodd;fill:url(#linearGradient1799);fill-rule:evenodd;stroke-width:0.440635;fill-opacity:1" />
</svg>
