<?xml version="1.0" encoding="UTF-8" standalone="no"?>
<svg
   version="1.1"
   width="48"
   height="48"
   id="svg3946"
   sodipodi:docname="com.github.gabutakut.gabutdm.uri.svg"
   inkscape:version="1.2.2 (b0a8486541, 2022-12-01)"
   xmlns:inkscape="http://www.inkscape.org/namespaces/inkscape"
   xmlns:sodipodi="http://sodipodi.sourceforge.net/DTD/sodipodi-0.dtd"
   xmlns:xlink="http://www.w3.org/1999/xlink"
   xmlns="http://www.w3.org/2000/svg"
   xmlns:svg="http://www.w3.org/2000/svg"
   xmlns:rdf="http://www.w3.org/1999/02/22-rdf-syntax-ns#"
   xmlns:cc="http://creativecommons.org/ns#"
   xmlns:dc="http://purl.org/dc/elements/1.1/">
  <sodipodi:namedview
     id="namedview47"
     pagecolor="#ffffff"
     bordercolor="#000000"
     borderopacity="0.25"
     inkscape:showpageshadow="2"
     inkscape:pageopacity="0.0"
     inkscape:pagecheckerboard="0"
     inkscape:deskcolor="#d1d1d1"
     showgrid="false"
     inkscape:zoom="7.0268735"
     inkscape:cx="25.117856"
     inkscape:cy="27.964072"
     inkscape:window-width="1366"
     inkscape:window-height="705"
     inkscape:window-x="0"
     inkscape:window-y="0"
     inkscape:window-maximized="1"
     inkscape:current-layer="svg3946"
     showguides="true" />
  <defs
     id="defs3948">
    <linearGradient
       id="linearGradient4251">
      <stop
         id="stop4247"
         offset="0"
         style="stop-color:#000000;stop-opacity:1;" />
      <stop
         id="stop4249"
         offset="1"
         style="stop-color:#ffffff;stop-opacity:1" />
    </linearGradient>
    <linearGradient
       id="linearGradient3242-7-3-8-0-4-58-06">
      <stop
         offset="0"
         style="stop-color:#cdf87e;stop-opacity:1"
         id="stop3244-5-8-5-6-4-3-8" />
      <stop
         offset="0.26238"
         style="stop-color:#a2e34f;stop-opacity:1"
         id="stop3246-9-5-1-5-3-0-7" />
      <stop
         offset="0.66093999"
         style="stop-color:#68b723;stop-opacity:1"
         id="stop3248-7-2-0-7-5-35-9" />
      <stop
         offset="1"
         style="stop-color:#1d7e0d;stop-opacity:1"
         id="stop3250-8-2-8-5-6-40-4" />
    </linearGradient>
    <radialGradient
       cx="65.59787"
       cy="48.744953"
       r="31.000002"
       fx="65.59787"
       fy="48.744953"
       id="radialGradient3343"
       xlink:href="#linearGradient3242-7-3-8-0-4-58-06"
       gradientUnits="userSpaceOnUse"
       gradientTransform="matrix(0,0.95936489,-1.0436697,0,87.757589,-35.865792)" />
    <linearGradient
       x1="24.138529"
       y1="9.712431"
       x2="24.138529"
       y2="36.594009"
       id="linearGradient3030-3"
       xlink:href="#linearGradient4154"
       gradientUnits="userSpaceOnUse"
       gradientTransform="matrix(0.70448868,0,0,0.59520312,21.241407,23.219131)" />
    <linearGradient
       id="linearGradient4154">
      <stop
         id="stop4156"
         style="stop-color:#ffffff;stop-opacity:1"
         offset="0" />
      <stop
         id="stop4158"
         style="stop-color:#ffffff;stop-opacity:0.23529412"
         offset="0" />
      <stop
         id="stop4160"
         style="stop-color:#ffffff;stop-opacity:0.15686275"
         offset="1" />
      <stop
         id="stop4162"
         style="stop-color:#ffffff;stop-opacity:0.39215687"
         offset="1" />
    </linearGradient>
    <linearGradient
       x1="24.138529"
       y1="20.271303"
       x2="24.138529"
       y2="26.006231"
       id="linearGradient3030-1-3"
       xlink:href="#linearGradient4154"
       gradientUnits="userSpaceOnUse"
       gradientTransform="matrix(0.60015241,0,0,0.69748032,23.556108,20.861165)" />
    <linearGradient
       gradientUnits="userSpaceOnUse"
       y2="40.125"
       x2="97"
       y1="40.125"
       x1="76.25"
       id="linearGradient4253"
       xlink:href="#linearGradient4251"
       gradientTransform="matrix(0.54155537,-0.60222633,-0.60222633,-0.54155537,13.599276,83.998113)" />
    <linearGradient
       gradientTransform="matrix(0.54155537,-0.60222633,-0.60222633,-0.54155537,0.23770748,100.63096)"
       y2="40.125"
       x2="97"
       y1="40.125"
       x1="76.25"
       gradientUnits="userSpaceOnUse"
       id="linearGradient4257"
       xlink:href="#linearGradient4251" />
    <linearGradient
       gradientUnits="userSpaceOnUse"
       y2="40.125"
       x2="77"
       y1="40.125"
       x1="66"
       id="linearGradient4267"
       xlink:href="#linearGradient4251"
       gradientTransform="matrix(0.80991282,0,0,0.80991282,-51.236759,-66.278012)" />
    <radialGradient
       cx="99.157013"
       cy="186.17059"
       r="62.769119"
       fx="99.157013"
       fy="186.17059"
       id="radialGradient4277"
       xlink:href="#linearGradient3820-7-2-2"
       gradientUnits="userSpaceOnUse"
       gradientTransform="matrix(0.37397886,0,0,0.08703406,-12.587076,26.992911)" />
    <linearGradient
       id="linearGradient3820-7-2-2">
      <stop
         id="stop3822-2-6-36"
         style="stop-color:#3d3d3d;stop-opacity:1"
         offset="0" />
      <stop
         id="stop3864-8-7-6"
         style="stop-color:#686868;stop-opacity:0.49803922"
         offset="0.5" />
      <stop
         id="stop3824-1-2-4"
         style="stop-color:#686868;stop-opacity:0"
         offset="1" />
    </linearGradient>
    <radialGradient
       r="7.228416"
       fy="75.92881"
       fx="11.969189"
       cy="73.615715"
       cx="6.702713"
       gradientTransform="matrix(3.3201926,0,0,0.72630016,0.68525974,-11.568804)"
       gradientUnits="userSpaceOnUse"
       id="radialGradient4643"
       xlink:href="#linearGradient8838-3" />
    <linearGradient
       id="linearGradient8838-3">
      <stop
         id="stop8840-6"
         style="stop-color:#000000;stop-opacity:1"
         offset="0" />
      <stop
         id="stop8842-7"
         style="stop-color:#000000;stop-opacity:0"
         offset="1" />
    </linearGradient>
    <radialGradient
       cx="99.157013"
       cy="186.17059"
       r="62.769119"
       fx="99.157013"
       fy="186.17059"
       id="radialGradient4277-6"
       xlink:href="#linearGradient3820-7-2-2"
       gradientUnits="userSpaceOnUse"
       gradientTransform="matrix(0.16264886,0,0,0.07603625,22.241524,29.409462)" />
    <radialGradient
       cx="99.157013"
       cy="186.17059"
       r="62.769119"
       fx="99.157013"
       fy="186.17059"
       id="radialGradient4277-6-2"
       xlink:href="#linearGradient3820-7-2-2"
       gradientUnits="userSpaceOnUse"
       gradientTransform="matrix(0.16264886,0,0,0.07603625,0.38055596,29.028392)" />
    <linearGradient
       gradientUnits="userSpaceOnUse"
       y2="40.125"
       x2="97"
       y1="40.125"
       x1="76.25"
       id="linearGradient4253-3"
       xlink:href="#linearGradient4251"
       gradientTransform="matrix(0.54155537,-0.60222633,-0.60222633,-0.54155537,0.8149947,98.116097)" />
    <linearGradient
       gradientTransform="matrix(0.54155537,-0.60222633,-0.60222633,-0.54155537,-11.523715,111.73985)"
       y2="40.125"
       x2="97"
       y1="40.125"
       x1="76.25"
       gradientUnits="userSpaceOnUse"
       id="linearGradient4257-5"
       xlink:href="#linearGradient4251" />
    <linearGradient
       gradientUnits="userSpaceOnUse"
       y2="40.125"
       x2="77"
       y1="40.125"
       x1="66"
       id="linearGradient4267-3"
       xlink:href="#linearGradient4251"
       gradientTransform="matrix(0.80991282,0,0,0.80991282,-69.39065,-66.224022)" />
  </defs>
  <metadata
     id="metadata3951">
    <rdf:RDF>
      <cc:Work
         rdf:about="">
        <dc:format>image/svg+xml</dc:format>
        <dc:type
           rdf:resource="http://purl.org/dc/dcmitype/StillImage" />
      </cc:Work>
    </rdf:RDF>
  </metadata>
  <g
     id="g368"
     transform="matrix(1.4148773,0,0,1.4148773,-18.694342,-0.50016706)">
    <path
       style="fill:#d4d4d4;fill-opacity:1;stroke:#000000;stroke-width:0.809913;stroke-linecap:round;stroke-linejoin:bevel;stroke-opacity:0.427451"
       d="m 25.228845,31.298713 c -1.575114,1.751575 -4.253279,1.893636 -6.004854,0.318522 l -2.559462,-2.30161 c -1.751575,-1.575114 -1.893636,-4.253279 -0.318522,-6.004854 l 5.550942,-6.17282 c 1.575114,-1.751575 4.253279,-1.893636 6.004854,-0.318522 l 2.559462,2.30161 c 1.751575,1.575114 1.893636,4.253279 0.318522,6.004854 z m -2.055266,-2.256668 5.144776,-5.72115 c 0.562541,-0.625563 0.511805,-1.58205 -0.113758,-2.144591 l -2.107792,-1.895443 c -0.625562,-0.562541 -1.58205,-0.511805 -2.14459,0.113758 l -5.144776,5.72115 c -0.562541,0.625562 -0.511805,1.58205 0.113758,2.14459 l 2.107792,1.895444 c 0.625562,0.562541 1.58205,0.511805 2.14459,-0.113758 z"
       id="rect3650-2" />
    <path
       id="path3702-9"
       d="m 25.228845,31.298713 c -1.575114,1.751575 -4.253279,1.893636 -6.004854,0.318522 l -2.559462,-2.30161 c -1.751575,-1.575114 -1.893636,-4.253279 -0.318522,-6.004854 l 5.550942,-6.17282 c 1.575114,-1.751575 4.253279,-1.893636 6.004854,-0.318522 l 2.559462,2.30161 c 1.751575,1.575114 1.893636,4.253279 0.318522,6.004854 z m -2.055266,-2.256668 5.144776,-5.72115 c 0.562541,-0.625563 0.511805,-1.58205 -0.113758,-2.144591 l -2.107792,-1.895443 c -0.625562,-0.562541 -1.58205,-0.511805 -2.14459,0.113758 l -5.144776,5.72115 c -0.562541,0.625562 -0.511805,1.58205 0.113758,2.14459 l 2.107792,1.895444 c 0.625562,0.562541 1.58205,0.511805 2.14459,-0.113758 z"
       style="opacity:0.2;fill:url(#linearGradient4253-3);fill-opacity:1;stroke:none;stroke-width:0.809913;stroke-linecap:round;stroke-linejoin:bevel;stroke-opacity:0.427451" />
    <path
       style="opacity:0.4;fill:none;fill-opacity:1;stroke:#ffffff;stroke-width:0.809913;stroke-linecap:round;stroke-linejoin:bevel;stroke-opacity:1"
       d="m 24.626619,30.757157 5.550942,-6.17282 c 1.275092,-1.417941 1.16009,-3.58598 -0.257851,-4.861072 l -2.559462,-2.30161"
       id="rect3646-1" />
    <path
       style="opacity:0.4;fill:none;fill-opacity:1;stroke:#ffffff;stroke-width:0.809913;stroke-linecap:round;stroke-linejoin:bevel;stroke-opacity:1"
       d="m 23.349989,18.853063 -5.144777,5.72115 c -0.862562,0.959196 -0.784767,2.42581 0.174429,3.288373"
       id="rect3648-2" />
    <path
       style="fill:#d4d4d4;fill-opacity:1;stroke:#000000;stroke-width:0.809913;stroke-linecap:round;stroke-linejoin:bevel;stroke-opacity:0.427451"
       d="m 38.013126,17.180729 c -1.575113,1.751575 -4.253278,1.893636 -6.004854,0.318522 l -2.559461,-2.30161 C 27.697235,13.622527 27.555174,10.944362 29.130288,9.192787 l 5.550943,-6.1728199 c 1.575113,-1.7515752 4.253278,-1.8936363 6.004853,-0.3185225 l 2.559462,2.3016103 c 1.751576,1.5751138 1.893637,4.2532787 0.318523,6.0048541 z M 35.957861,14.924061 41.102637,9.2029111 C 41.665178,8.5773485 41.614441,7.620861 40.988879,7.0583204 L 38.881087,5.1628766 C 38.255524,4.600336 37.299037,4.6510721 36.736496,5.2766347 L 31.59172,10.997785 c -0.562541,0.625562 -0.511805,1.58205 0.113758,2.14459 l 2.107792,1.895444 c 0.625563,0.562541 1.58205,0.511805 2.144591,-0.113758 z"
       id="rect3650" />
    <path
       id="path3702"
       d="m 38.013126,17.180729 c -1.575113,1.751575 -4.253278,1.893636 -6.004854,0.318522 l -2.559461,-2.30161 C 27.697235,13.622527 27.555174,10.944362 29.130288,9.192787 l 5.550943,-6.1728199 c 1.575113,-1.7515752 4.253278,-1.8936363 6.004853,-0.3185225 l 2.559462,2.3016103 c 1.751576,1.5751138 1.893637,4.2532787 0.318523,6.0048541 z M 35.957861,14.924061 41.102637,9.2029111 C 41.665178,8.5773485 41.614441,7.620861 40.988879,7.0583204 L 38.881087,5.1628766 C 38.255524,4.600336 37.299037,4.6510721 36.736496,5.2766347 L 31.59172,10.997785 c -0.562541,0.625562 -0.511805,1.58205 0.113758,2.14459 l 2.107792,1.895444 c 0.625563,0.562541 1.58205,0.511805 2.144591,-0.113758 z"
       style="opacity:0.2;fill:url(#linearGradient4253);fill-opacity:1;stroke:none;stroke-width:0.809913;stroke-linecap:round;stroke-linejoin:bevel;stroke-opacity:0.427451" />
    <path
       style="opacity:0.4;fill:none;fill-opacity:1;stroke:#ffffff;stroke-width:0.809913;stroke-linecap:round;stroke-linejoin:bevel;stroke-opacity:1"
       d="m 37.4109,16.639173 5.550943,-6.17282 C 44.236935,9.0484116 44.121933,6.8803734 42.703991,5.6052813 L 40.144529,3.3036709"
       id="rect3646" />
    <path
       style="opacity:0.4;fill:none;fill-opacity:1;stroke:#ffffff;stroke-width:0.809913;stroke-linecap:round;stroke-linejoin:bevel;stroke-opacity:1"
       d="m 36.13427,4.7350787 -5.144776,5.7211503 c -0.862563,0.959196 -0.784767,2.42581 0.174429,3.288373"
       id="rect3648" />
    <rect
       style="fill:#d4d4d4;fill-opacity:1;stroke:#000000;stroke-width:0.809913;stroke-linecap:round;stroke-linejoin:bevel;stroke-opacity:0.427451"
       id="rect3644"
       width="16.198256"
       height="3.037173"
       x="-0.41472998"
       y="-35.298847"
       rx="1.8223039"
       ry="1.8223039"
       transform="matrix(0.66865885,-0.74356933,-0.74356933,-0.66865885,0,0)" />
    <rect
       ry="1.8223039"
       rx="1.8223039"
       y="-35.298847"
       x="-0.41472998"
       height="3.037173"
       width="16.198256"
       id="rect4259"
       style="opacity:0.2;fill:url(#linearGradient4267);fill-opacity:1;stroke:none;stroke-width:0.809913;stroke-linecap:round;stroke-linejoin:bevel;stroke-opacity:0.427451"
       transform="matrix(0.66865885,-0.74356933,-0.74356933,-0.66865885,0,0)" />
    <path
       style="opacity:0.4;fill:none;fill-opacity:1;stroke:#ffffff;stroke-width:0.809913;stroke-linecap:round;stroke-linejoin:bevel;stroke-opacity:1"
       d="m 25.382207,22.293623 c 0.29193,0.262519 0.828866,0.13812 1.203893,-0.278922 l 8.394108,-9.334508 c 0.375027,-0.417042 0.441925,-0.964125 0.149996,-1.226644"
       id="rect3687" />
  </g>
</svg>
