<?xml version="1.0" encoding="UTF-8" standalone="no"?>
<svg
   version="1.1"
   width="48"
   height="48"
   id="svg3946"
   sodipodi:docname="com.github.gabutakut.gabutdm.metalink.svg"
   inkscape:version="1.2 (1:1.2+202205211824+da316b6974)"
   xmlns:inkscape="http://www.inkscape.org/namespaces/inkscape"
   xmlns:sodipodi="http://sodipodi.sourceforge.net/DTD/sodipodi-0.dtd"
   xmlns:xlink="http://www.w3.org/1999/xlink"
   xmlns="http://www.w3.org/2000/svg"
   xmlns:svg="http://www.w3.org/2000/svg"
   xmlns:rdf="http://www.w3.org/1999/02/22-rdf-syntax-ns#"
   xmlns:cc="http://creativecommons.org/ns#"
   xmlns:dc="http://purl.org/dc/elements/1.1/">
  <sodipodi:namedview
     id="namedview47"
     pagecolor="#ffffff"
     bordercolor="#666666"
     borderopacity="1.0"
     inkscape:pageshadow="2"
     inkscape:pageopacity="0.0"
     inkscape:pagecheckerboard="0"
     showgrid="false"
     inkscape:zoom="7.9991455"
     inkscape:cx="18.62699"
     inkscape:cy="26.690351"
     inkscape:window-width="1366"
     inkscape:window-height="707"
     inkscape:window-x="0"
     inkscape:window-y="30"
     inkscape:window-maximized="1"
     inkscape:current-layer="svg3946"
     inkscape:showpageshadow="2"
     inkscape:deskcolor="#d1d1d1" />
  <defs
     id="defs3948">
    <linearGradient
       id="linearGradient4251">
      <stop
         id="stop4247"
         offset="0"
         style="stop-color:#000000;stop-opacity:1;" />
      <stop
         id="stop4249"
         offset="1"
         style="stop-color:#ffffff;stop-opacity:1" />
    </linearGradient>
    <linearGradient
       id="linearGradient3242-7-3-8-0-4-58-06">
      <stop
         offset="0"
         style="stop-color:#cdf87e;stop-opacity:1"
         id="stop3244-5-8-5-6-4-3-8" />
      <stop
         offset="0.26238"
         style="stop-color:#a2e34f;stop-opacity:1"
         id="stop3246-9-5-1-5-3-0-7" />
      <stop
         offset="0.66093999"
         style="stop-color:#68b723;stop-opacity:1"
         id="stop3248-7-2-0-7-5-35-9" />
      <stop
         offset="1"
         style="stop-color:#1d7e0d;stop-opacity:1"
         id="stop3250-8-2-8-5-6-40-4" />
    </linearGradient>
    <radialGradient
       cx="65.59787"
       cy="48.744953"
       r="31.000002"
       fx="65.59787"
       fy="48.744953"
       id="radialGradient3343"
       xlink:href="#linearGradient3242-7-3-8-0-4-58-06"
       gradientUnits="userSpaceOnUse"
       gradientTransform="matrix(0,0.95936489,-1.0436697,0,87.757589,-35.865792)" />
    <linearGradient
       x1="24.138529"
       y1="9.712431"
       x2="24.138529"
       y2="36.594009"
       id="linearGradient3030-3"
       xlink:href="#linearGradient4154"
       gradientUnits="userSpaceOnUse"
       gradientTransform="matrix(0.70448868,0,0,0.59520312,21.241407,23.219131)" />
    <linearGradient
       id="linearGradient4154">
      <stop
         id="stop4156"
         style="stop-color:#ffffff;stop-opacity:1"
         offset="0" />
      <stop
         id="stop4158"
         style="stop-color:#ffffff;stop-opacity:0.23529412"
         offset="0" />
      <stop
         id="stop4160"
         style="stop-color:#ffffff;stop-opacity:0.15686275"
         offset="1" />
      <stop
         id="stop4162"
         style="stop-color:#ffffff;stop-opacity:0.39215687"
         offset="1" />
    </linearGradient>
    <linearGradient
       x1="24.138529"
       y1="20.271303"
       x2="24.138529"
       y2="26.006231"
       id="linearGradient3030-1-3"
       xlink:href="#linearGradient4154"
       gradientUnits="userSpaceOnUse"
       gradientTransform="matrix(0.60015241,0,0,0.69748032,23.556108,20.861165)" />
    <linearGradient
       gradientUnits="userSpaceOnUse"
       y2="40.125"
       x2="97"
       y1="40.125"
       x1="76.25"
       id="linearGradient4253"
       xlink:href="#linearGradient4251" />
    <linearGradient
       gradientTransform="translate(-27.75)"
       y2="40.125"
       x2="97"
       y1="40.125"
       x1="76.25"
       gradientUnits="userSpaceOnUse"
       id="linearGradient4257"
       xlink:href="#linearGradient4251" />
    <linearGradient
       gradientUnits="userSpaceOnUse"
       y2="40.125"
       x2="77"
       y1="40.125"
       x1="66"
       id="linearGradient4267"
       xlink:href="#linearGradient4251" />
    <radialGradient
       cx="99.157013"
       cy="186.17059"
       r="62.769119"
       fx="99.157013"
       fy="186.17059"
       id="radialGradient4277"
       xlink:href="#linearGradient3820-7-2-2"
       gradientUnits="userSpaceOnUse"
       gradientTransform="matrix(0.11948551,0,0,0.07603625,23.480174,26.832974)" />
    <linearGradient
       id="linearGradient3820-7-2-2">
      <stop
         id="stop3822-2-6-36"
         style="stop-color:#3d3d3d;stop-opacity:1"
         offset="0" />
      <stop
         id="stop3864-8-7-6"
         style="stop-color:#686868;stop-opacity:0.49803922"
         offset="0.5" />
      <stop
         id="stop3824-1-2-4"
         style="stop-color:#686868;stop-opacity:0"
         offset="1" />
    </linearGradient>
    <radialGradient
       cx="99.157013"
       cy="186.17059"
       r="62.769119"
       fx="99.157013"
       fy="186.17059"
       id="radialGradient4277-3"
       xlink:href="#linearGradient3820-7-2-2"
       gradientUnits="userSpaceOnUse"
       gradientTransform="matrix(0.05033396,0,0,0.03203071,20.130982,32.947389)" />
    <radialGradient
       cx="99.157013"
       cy="186.17059"
       r="62.769119"
       fx="99.157013"
       fy="186.17059"
       id="radialGradient4277-3-1"
       xlink:href="#linearGradient3820-7-2-2"
       gradientUnits="userSpaceOnUse"
       gradientTransform="matrix(0.05033396,0,0,0.03203071,5.1663517,18.939472)" />
  </defs>
  <metadata
     id="metadata3951">
    <rdf:RDF>
      <cc:Work
         rdf:about="">
        <dc:format>image/svg+xml</dc:format>
        <dc:type
           rdf:resource="http://purl.org/dc/dcmitype/StillImage" />
      </cc:Work>
    </rdf:RDF>
  </metadata>
  <path
     style="fill:url(#radialGradient4277);fill-opacity:1;stroke:none;stroke-width:1"
     id="path3818-0-2"
     d="m 42.828,40.988684 a 7.5,4.7727271 0 1 1 -15,0 7.5,4.7727271 0 1 1 15,0 z" />
  <g
     transform="matrix(0.00512287,-0.74751281,0.74751281,0.00512287,5.4716369,76.436238)"
     id="g4282">
    <path
       style="opacity:1;fill:#d4d4d4;fill-opacity:1;stroke:#000000;stroke-width:1;stroke-linecap:round;stroke-linejoin:bevel;stroke-opacity:0.427451"
       d="m 53.75,32.75 c -2.9085,0 -5.25,2.3415 -5.25,5.25 v 4.25 c 0,2.9085 2.3415,5.25 5.25,5.25 H 64 c 2.9085,0 5.25,-2.3415 5.25,-5.25 V 38 c 0,-2.9085 -2.3415,-5.25 -5.25,-5.25 z m 0.375,3.75 h 9.5 c 1.03875,0 1.875,0.83625 1.875,1.875 v 3.5 c 0,1.03875 -0.83625,1.875 -1.875,1.875 h -9.5 c -1.03875,0 -1.875,-0.83625 -1.875,-1.875 v -3.5 c 0,-1.03875 0.83625,-1.875 1.875,-1.875 z"
       id="rect3636" />
    <path
       style="opacity:1;fill:#d4d4d4;fill-opacity:1;stroke:#000000;stroke-width:1;stroke-linecap:round;stroke-linejoin:bevel;stroke-opacity:0.427451"
       d="m 81.5,32.75 c -2.9085,0 -5.25,2.3415 -5.25,5.25 v 4.25 c 0,2.9085 2.3415,5.25 5.25,5.25 H 91.75 C 94.6585,47.5 97,45.1585 97,42.25 V 38 c 0,-2.9085 -2.3415,-5.25 -5.25,-5.25 z m 0.375,3.75 h 9.5 c 1.03875,0 1.875,0.83625 1.875,1.875 v 3.5 c 0,1.03875 -0.83625,1.875 -1.875,1.875 h -9.5 C 80.83625,43.75 80,42.91375 80,41.875 v -3.5 C 80,37.33625 80.83625,36.5 81.875,36.5 Z"
       id="rect3650" />
    <path
       id="path3702"
       d="m 81.5,32.75 c -2.9085,0 -5.25,2.3415 -5.25,5.25 v 4.25 c 0,2.9085 2.3415,5.25 5.25,5.25 H 91.75 C 94.6585,47.5 97,45.1585 97,42.25 V 38 c 0,-2.9085 -2.3415,-5.25 -5.25,-5.25 z m 0.375,3.75 h 9.5 c 1.03875,0 1.875,0.83625 1.875,1.875 v 3.5 c 0,1.03875 -0.83625,1.875 -1.875,1.875 h -9.5 C 80.83625,43.75 80,42.91375 80,41.875 v -3.5 C 80,37.33625 80.83625,36.5 81.875,36.5 Z"
       style="opacity:0.2;fill:url(#linearGradient4253);fill-opacity:1;stroke:none;stroke-width:1;stroke-linecap:round;stroke-linejoin:bevel;stroke-opacity:0.427451" />
    <path
       style="opacity:0.4;fill:none;fill-opacity:1;stroke:#ffffff;stroke-width:1;stroke-linecap:round;stroke-linejoin:bevel;stroke-opacity:1"
       d="m 81.5,33.75 h 10.25 c 2.3545,0 4.25,1.8955 4.25,4.25 v 4.25"
       id="rect3646" />
    <path
       style="opacity:0.4;fill:none;fill-opacity:1;stroke:#ffffff;stroke-width:1;stroke-linecap:round;stroke-linejoin:bevel;stroke-opacity:1"
       d="M 91.375001,44.75 H 81.875 C 80.28225,44.75 79,43.46775 79,41.875"
       id="rect3648" />
    <path
       style="opacity:0.2;fill:url(#linearGradient4257);fill-opacity:1;stroke:none;stroke-width:1;stroke-linecap:round;stroke-linejoin:bevel;stroke-opacity:0.427451"
       d="m 53.75,32.75 c -2.9085,0 -5.25,2.3415 -5.25,5.25 v 4.25 c 0,2.9085 2.3415,5.25 5.25,5.25 H 64 c 2.9085,0 5.25,-2.3415 5.25,-5.25 V 38 c 0,-2.9085 -2.3415,-5.25 -5.25,-5.25 z m 0.375,3.75 h 9.5 c 1.03875,0 1.875,0.83625 1.875,1.875 v 3.5 c 0,1.03875 -0.83625,1.875 -1.875,1.875 h -9.5 c -1.03875,0 -1.875,-0.83625 -1.875,-1.875 v -3.5 c 0,-1.03875 0.83625,-1.875 1.875,-1.875 z"
       id="path4255" />
    <path
       id="path3691"
       d="M 64,46.5 H 53.75 c -2.3545,0 -4.25,-1.8955 -4.25,-4.25 V 38"
       style="opacity:0.4;fill:none;fill-opacity:1;stroke:#ffffff;stroke-width:1;stroke-linecap:round;stroke-linejoin:bevel;stroke-opacity:1" />
    <path
       id="path3693"
       d="M 54.124999,35.5 H 63.625 c 1.59275,0 2.875,1.28225 2.875,2.875"
       style="opacity:0.4;fill:none;fill-opacity:1;stroke:#ffffff;stroke-width:1;stroke-linecap:round;stroke-linejoin:bevel;stroke-opacity:1" />
    <rect
       style="opacity:1;fill:#d4d4d4;fill-opacity:1;stroke:#000000;stroke-width:1;stroke-linecap:round;stroke-linejoin:bevel;stroke-opacity:0.427451"
       id="rect3644"
       width="20"
       height="3.75"
       x="62.75"
       y="38.25"
       rx="2.25"
       ry="2.25" />
    <rect
       ry="2.25"
       rx="2.25"
       y="38.25"
       x="62.75"
       height="3.75"
       width="20"
       id="rect4259"
       style="opacity:0.2;fill:url(#linearGradient4267);fill-opacity:1;stroke:none;stroke-width:1;stroke-linecap:round;stroke-linejoin:bevel;stroke-opacity:0.427451" />
    <path
       style="opacity:0.4;fill:none;fill-opacity:1;stroke:#ffffff;stroke-width:1;stroke-linecap:round;stroke-linejoin:bevel;stroke-opacity:1"
       d="m 63.75,40.125 c 0,-0.48475 0.5575,-0.875 1.25,-0.875 h 15.5 c 0.6925,0 1.25,0.39025 1.25,0.875"
       id="rect3687" />
  </g>
  <path
     style="color:#bebebe;display:inline;overflow:visible;visibility:visible;opacity:0.2;fill:#3689e6;fill-opacity:1;fill-rule:nonzero;stroke:none;stroke-width:1.11474;marker:none;enable-background:accumulate"
     id="path10693"
     d="m 14.450537,6.0681953 c 0,0 -1.486297,0 -1.486297,1.4203266 0,1.4202598 -1.486363,1.4202598 -1.486363,1.4202598 0,0 -1.4863088,9.921e-4 -1.4863088,-1.4202598 V 27.372392 H 18.909507 V 7.4885219 c 0,1.4202598 -1.486298,1.4202598 -1.486298,1.4202598 0,0 -1.486375,0 -1.486375,-1.4202598 0,-1.4203266 -1.486297,-1.4203266 -1.486297,-1.4203266 z" />
  <path
     style="color:#bebebe;display:inline;overflow:visible;visibility:visible;opacity:0.5;fill:#3689e6;fill-opacity:1;fill-rule:nonzero;stroke:none;stroke-width:1.11474;marker:none;enable-background:accumulate"
     id="path10707"
     d="m 11.477899,12.492478 c 0,0 -1.4863308,-0.0011 -1.4863308,1.420271 v 9.727152 h 8.9179388 v -9.727152 c 0,-1.420271 -1.48632,-1.420271 -1.48632,-1.420271 0,0 -1.48633,0 -1.48633,1.420271 0,1.420281 -1.48632,1.420281 -1.48632,1.420281 0,0 -1.486319,0 -1.486319,-1.420281 0,-1.420271 -1.486319,-1.420271 -1.486319,-1.420271 z" />
  <path
     style="color:#bebebe;display:inline;overflow:visible;visibility:visible;fill:#3689e6;fill-opacity:1;fill-rule:nonzero;stroke:none;stroke-width:1.11474;marker:none;enable-background:accumulate"
     id="path10725"
     d="m 14.450537,18.329279 c 0,0 -1.487044,0.0011 -1.487044,1.421731 0,1.42026 -1.484881,1.419547 -1.484881,1.419547 0,0 -1.4870438,0.0022 -1.4870438,-1.419547 v 5.366872 H 9.6736883 3.3031142 L 14.450537,39.520263 25.597961,25.117882 h -2.547365 l -3.821036,0.0022 v -0.0022 H 18.909507 V 19.75101 c 0,1.42026 -1.487044,1.419547 -1.487044,1.419547 0,0 -1.484882,7.13e-4 -1.484882,-1.419547 0,-1.420326 -1.487044,-1.421731 -1.487044,-1.421731 z" />
</svg>
