<?xml version="1.0" encoding="UTF-8" standalone="no"?>
<svg
   id="svg4031"
   height="48"
   width="48"
   version="1.1"
   sodipodi:docname="com.github.gabutakut.gabutdm.peerchoking.svg"
   inkscape:version="1.2.2 (b0a8486541, 2022-12-01)"
   xmlns:inkscape="http://www.inkscape.org/namespaces/inkscape"
   xmlns:sodipodi="http://sodipodi.sourceforge.net/DTD/sodipodi-0.dtd"
   xmlns:xlink="http://www.w3.org/1999/xlink"
   xmlns="http://www.w3.org/2000/svg"
   xmlns:svg="http://www.w3.org/2000/svg"
   xmlns:rdf="http://www.w3.org/1999/02/22-rdf-syntax-ns#"
   xmlns:cc="http://creativecommons.org/ns#"
   xmlns:dc="http://purl.org/dc/elements/1.1/">
  <sodipodi:namedview
     id="namedview29"
     pagecolor="#ffffff"
     bordercolor="#000000"
     borderopacity="0.25"
     inkscape:showpageshadow="2"
     inkscape:pageopacity="0.0"
     inkscape:pagecheckerboard="0"
     inkscape:deskcolor="#d1d1d1"
     showgrid="false"
     inkscape:zoom="5.2395835"
     inkscape:cx="-7.9204769"
     inkscape:cy="22.616301"
     inkscape:window-width="1366"
     inkscape:window-height="705"
     inkscape:window-x="0"
     inkscape:window-y="0"
     inkscape:window-maximized="1"
     inkscape:current-layer="svg4031" />
  <defs
     id="defs4033">
    <linearGradient
       id="linearGradient4011">
      <stop
         offset="0"
         style="stop-color:#ffffff;stop-opacity:1"
         id="stop4013" />
      <stop
         offset="0.507761"
         style="stop-color:#ffffff;stop-opacity:0.23529412"
         id="stop4015" />
      <stop
         offset="0.83456558"
         style="stop-color:#ffffff;stop-opacity:0.15686275"
         id="stop4017" />
      <stop
         offset="1"
         style="stop-color:#ffffff;stop-opacity:0.39215687"
         id="stop4019" />
    </linearGradient>
    <linearGradient
       gradientTransform="matrix(1.054054,0,0,1.054054,-51.611001,-2.7279009)"
       gradientUnits="userSpaceOnUse"
       xlink:href="#linearGradient4011"
       id="linearGradient3012"
       y2="44.340794"
       x2="71.204407"
       y1="6.2375584"
       x1="71.204407" />
    <linearGradient
       id="linearGradient27416-1-2-0-1">
      <stop
         offset="0"
         style="stop-color:#4374d6;stop-opacity:1;"
         id="stop27420-2-0-8-7" />
      <stop
         offset="1"
         style="stop-color:#24c9e2;stop-opacity:1;"
         id="stop27422-3-5-3-3" />
    </linearGradient>
    <linearGradient
       y2="74.40242"
       x2="-53.44228"
       y1="41.401314"
       x1="-53.44228"
       gradientTransform="matrix(0.67764878,0,0,1.2335161,60.2151,-47.569187)"
       gradientUnits="userSpaceOnUse"
       id="linearGradient3066"
       xlink:href="#linearGradient27416-1-2-0-1" />
    <radialGradient
       xlink:href="#linearGradient3820-7-2"
       id="radialGradient3300-8"
       gradientUnits="userSpaceOnUse"
       gradientTransform="matrix(0.3823536,7.5555777e-8,-1.8372241e-8,0.1115198,-5.9254271,36.335849)"
       cx="99.189415"
       cy="185.29727"
       fx="99.189415"
       fy="185.29727"
       r="62.769119" />
    <linearGradient
       id="linearGradient3820-7-2">
      <stop
         id="stop3822-2-6"
         style="stop-color:#000000;stop-opacity:1"
         offset="0" />
      <stop
         id="stop3824-1-2"
         style="stop-color:#000000;stop-opacity:0"
         offset="1" />
    </linearGradient>
    <radialGradient
       xlink:href="#linearGradient3820-7-2"
       id="radialGradient4192-6"
       gradientUnits="userSpaceOnUse"
       gradientTransform="matrix(0.2549024,5.3967361e-8,-1.2248161e-8,0.07965545,6.7163816,44.240666)"
       cx="99.189415"
       cy="185.29727"
       fx="99.189415"
       fy="185.29727"
       r="62.769119" />
    <radialGradient
       xlink:href="#linearGradient3820-7-2"
       id="radialGradient3300"
       gradientUnits="userSpaceOnUse"
       gradientTransform="matrix(0.3823536,7.5555777e-8,-1.8372241e-8,0.1115198,-5.9254271,36.335849)"
       cx="99.189415"
       cy="185.29727"
       fx="99.189415"
       fy="185.29727"
       r="62.769119" />
    <radialGradient
       xlink:href="#linearGradient3820-7-2"
       id="radialGradient4192"
       gradientUnits="userSpaceOnUse"
       gradientTransform="matrix(0.2549024,5.3967361e-8,-1.2248161e-8,0.07965545,6.7163816,44.240666)"
       cx="99.189415"
       cy="185.29727"
       fx="99.189415"
       fy="185.29727"
       r="62.769119" />
    <linearGradient
       gradientTransform="matrix(1.6204373,0,0,1.2114326,-3279.5523,-3882.9389)"
       gradientUnits="userSpaceOnUse"
       xlink:href="#linearGradient947"
       id="linearGradient11527-6-5"
       y2="3241.9966"
       x2="2035.1652"
       y1="3208.0737"
       x1="2035.1652" />
    <linearGradient
       id="linearGradient947">
      <stop
         id="stop943"
         style="stop-color:#ed5353;stop-opacity:1"
         offset="0" />
      <stop
         id="stop945"
         style="stop-color:#c6262e;stop-opacity:1"
         offset="1" />
    </linearGradient>
    <linearGradient
       gradientTransform="matrix(1.1040547,0,0,1.1040547,-54.971841,-4.5975365)"
       gradientUnits="userSpaceOnUse"
       xlink:href="#linearGradient4011"
       id="linearGradient12398-3"
       y2="44.340794"
       x2="71.204407"
       y1="6.2375584"
       x1="71.204407" />
  </defs>
  <metadata
     id="metadata4036">
    <rdf:RDF>
      <cc:Work
         rdf:about="">
        <dc:format>image/svg+xml</dc:format>
        <dc:type
           rdf:resource="http://purl.org/dc/dcmitype/StillImage" />
        <dc:title />
      </cc:Work>
    </rdf:RDF>
  </metadata>
  <g
     id="g4198"
     transform="matrix(0.71666675,0,0,0.71666675,1.2925577,0.46489754)">
    <path
       d="m 55.999998,57.0017 a 24,6.9985714 0 1 1 -47.9999991,0 24,6.9985714 0 1 1 47.9999991,0 z"
       id="path3818-0"
       style="opacity:0.2;fill:url(#radialGradient3300);fill-opacity:1;stroke:none" />
    <path
       style="opacity:0.4;fill:url(#radialGradient4192);fill-opacity:1;stroke:none"
       id="path4190"
       d="m 47.999998,59.0017 a 16,4.9988822 0 1 1 -31.999999,0 16,4.9988822 0 1 1 31.999999,0 z" />
  </g>
  <path
     d="m 24.225899,2.2565625 c -11.665253,0 -21.1416733,9.4764215 -21.1416733,21.1416695 0,11.665249 9.4764203,21.14167 21.1416733,21.14167 11.665236,0 21.141677,-9.476421 21.141663,-21.14167 0,-11.665248 -9.476427,-21.1416695 -21.141663,-21.1416695 z"
     id="path2555-7-8-5-0-9"
     style="color:#000000;display:inline;overflow:visible;visibility:visible;opacity:0.99;fill:url(#linearGradient11527-6-5);fill-opacity:1;fill-rule:nonzero;stroke:none;stroke-width:0.716667;marker:none;enable-background:accumulate" />
  <path
     d="m 44.650895,23.397502 c 0,11.280798 -9.145272,20.425741 -20.424753,20.425741 -11.280522,0 -20.4252503,-9.145051 -20.4252503,-20.425741 0,-11.280261 9.1447283,-20.4242805 20.4252503,-20.4242805 11.279481,0 20.424753,9.1440195 20.424753,20.4242805 z"
     id="path8655-6-0-9-5-0"
     style="color:#000000;display:inline;overflow:visible;visibility:visible;opacity:0.4;fill:none;stroke:url(#linearGradient12398-3);stroke-width:0.716667;stroke-linecap:round;stroke-linejoin:round;stroke-miterlimit:4;stroke-dasharray:none;stroke-dashoffset:0;stroke-opacity:1;marker:none;enable-background:accumulate" />
  <path
     d="m 24.225899,2.2565625 c -11.665244,0 -21.1416723,9.4764255 -21.1416723,21.1416685 0,11.665245 9.4764283,21.141675 21.1416723,21.141671 11.665242,0 21.141676,-9.476426 21.141662,-21.141671 0,-11.665243 -9.47642,-21.1416685 -21.141662,-21.1416685 z"
     id="path2555-4"
     style="color:#000000;display:inline;overflow:visible;visibility:visible;opacity:0.5;vector-effect:none;fill:none;fill-opacity:1;stroke:#7a0000;stroke-width:0.716667;stroke-linecap:round;stroke-linejoin:round;stroke-miterlimit:4;stroke-dasharray:none;stroke-dashoffset:0;stroke-opacity:1;marker:none;enable-background:accumulate" />
  <path
     d="m 26.6656,10.545128 c -2.875402,0 -5.351936,1.577539 -6.724819,3.874037 -0.778263,-0.406909 -1.641755,-0.680534 -2.581709,-0.680534 -3.099802,0 -5.625946,2.511964 -5.625946,5.600414 0,0.388056 0.07713,0.746285 0.153193,1.101817 -2.0286163,1.482801 -3.3624093,3.859412 -3.3624093,6.561804 0,4.510604 3.6637383,8.15561 8.1929263,8.15561 h 14.763569 c 4.529196,0 8.192925,-3.645006 8.192925,-8.15561 0,-3.458274 -2.183723,-6.358268 -5.231177,-7.544798 0.0481,-0.355999 0.09624,-0.711629 0.09624,-1.077267 0,-4.323036 -3.532289,-7.835473 -7.87279,-7.835473 z"
     id="path4419"
     style="color:#000000;clip-rule:nonzero;display:inline;overflow:visible;visibility:visible;opacity:0.15;isolation:auto;mix-blend-mode:normal;color-interpolation:sRGB;color-interpolation-filters:linearRGB;solid-color:#000000;solid-opacity:1;fill:#002e99;fill-opacity:1;fill-rule:nonzero;stroke:none;stroke-width:0.50279;stroke-linecap:butt;stroke-linejoin:miter;stroke-miterlimit:4;stroke-dasharray:none;stroke-dashoffset:0;stroke-opacity:1;marker:none;color-rendering:auto;image-rendering:auto;shape-rendering:auto;text-rendering:auto;enable-background:accumulate" />
  <path
     style="color:#000000;clip-rule:nonzero;display:inline;overflow:visible;visibility:visible;opacity:0.3;isolation:auto;mix-blend-mode:normal;color-interpolation:sRGB;color-interpolation-filters:linearRGB;solid-color:#000000;solid-opacity:1;fill:#002e99;fill-opacity:1;fill-rule:nonzero;stroke:none;stroke-width:0.50279;stroke-linecap:butt;stroke-linejoin:miter;stroke-miterlimit:4;stroke-dasharray:none;stroke-dashoffset:0;stroke-opacity:1;marker:none;color-rendering:auto;image-rendering:auto;shape-rendering:auto;text-rendering:auto;enable-background:accumulate"
     id="rect4519-6"
     d="m 26.666061,11.036133 c -2.857572,0 -5.332327,1.628352 -6.559004,3.991764 -0.795054,-0.502696 -1.736215,-0.798338 -2.747959,-0.798338 -2.835904,0 -5.134875,2.287519 -5.134875,5.109427 0,0.448642 0.07135,0.882685 0.180516,1.297288 -2.04819,1.374606 -3.3898233,3.713134 -3.3898233,6.366814 0,4.245938 3.4352343,7.664182 7.7023083,7.664182 h 14.762785 c 4.267082,0 7.702316,-3.418244 7.702316,-7.664182 0,-3.390551 -2.199755,-6.249104 -5.255242,-7.264972 0.08287,-0.440651 0.12036,-0.89254 0.12036,-1.357145 0,-4.056468 -3.304743,-7.344838 -7.381371,-7.344838 z" />
  <path
     style="color:#000000;display:inline;overflow:visible;visibility:visible;fill:#ffffff;fill-opacity:1;fill-rule:nonzero;stroke:none;stroke-width:0.50279;stroke-linecap:butt;stroke-linejoin:miter;stroke-miterlimit:4;stroke-dasharray:none;stroke-dashoffset:0;stroke-opacity:1;marker:none;enable-background:accumulate"
     id="rect4519"
     d="m 26.666061,10.533344 c -2.857572,0 -5.332327,1.628351 -6.559004,3.991763 -0.795054,-0.502696 -1.736215,-0.798339 -2.747959,-0.798339 -2.835904,0 -5.134875,2.287521 -5.134875,5.109428 0,0.448641 0.07135,0.882685 0.180516,1.297289 -2.04819,1.374606 -3.3898233,3.713134 -3.3898233,6.366813 0,4.245938 3.4352343,7.664182 7.7023083,7.664182 h 14.762785 c 4.267082,0 7.702316,-3.418244 7.702316,-7.664182 0,-3.390551 -2.199755,-6.249104 -5.255242,-7.264971 0.08287,-0.440652 0.12036,-0.89254 0.12036,-1.357145 0,-4.05647 -3.304743,-7.344838 -7.381371,-7.344838 z" />
  <path
     id="rect4519-5-5"
     style="color:#000000;font-variation-settings:normal;display:inline;overflow:visible;visibility:visible;opacity:0.07;vector-effect:none;fill:#002e99;fill-opacity:1;fill-rule:nonzero;stroke:none;stroke-width:0.50279;stroke-linecap:butt;stroke-linejoin:miter;stroke-miterlimit:4;stroke-dasharray:none;stroke-dashoffset:0;stroke-opacity:1;-inkscape-stroke:none;marker:none;enable-background:accumulate;stop-color:#000000"
     d="m 9.2407777,28.321508 c 0.8185673,3.359298 3.8413363,5.842972 7.4760583,5.842972 h 14.763569 c 3.634731,0 6.65749,-2.483674 7.476057,-5.842972 -1.278672,2.844576 -4.139857,4.825608 -7.476057,4.825608 H 16.716836 c -3.336193,0 -6.197383,-1.981032 -7.4760583,-4.825608 z" />
  <path
     id="rect4519-5"
     style="color:#000000;font-variation-settings:normal;display:inline;overflow:visible;visibility:visible;opacity:0.15;vector-effect:none;fill:#002e99;fill-opacity:1;fill-rule:nonzero;stroke:none;stroke-width:0.50279;stroke-linecap:butt;stroke-linejoin:miter;stroke-miterlimit:4;stroke-dasharray:none;stroke-dashoffset:0;stroke-opacity:1;-inkscape-stroke:none;marker:none;enable-background:accumulate;stop-color:#000000"
     d="m 34.039528,17.56455 c -0.009,0.397655 -0.04147,0.787618 -0.112935,1.167612 0.02201,0.0073 0.0429,0.01704 0.06481,0.02455 0.03304,-0.288397 0.05597,-0.580398 0.05597,-0.878902 0,-0.105026 -0.0035,-0.209304 -0.0078,-0.313261 z m -21.804595,1.055662 c -0.003,0.07219 -0.01076,0.143111 -0.01076,0.216043 0,0.294737 0.03238,0.582425 0.08446,0.863189 0.03238,-0.02246 0.0635,-0.04677 0.09624,-0.06874 -0.08574,-0.325587 -0.147046,-0.663271 -0.169889,-1.010491 z m -3.2131443,7.659693 c -0.002,0.0735 -0.0069,0.145965 -0.0069,0.21997 0,4.245935 3.4348513,7.664605 7.7019203,7.664605 h 14.763569 c 4.267078,0 7.701919,-3.41867 7.701919,-7.664605 0,-0.06424 -0.0063,-0.126668 -0.0078,-0.19051 -0.163694,4.099884 -3.532206,7.352326 -7.694062,7.352326 H 16.716836 c -4.171776,0 -7.5463093,-3.268079 -7.6950473,-7.381786 z" />
</svg>
